<?xml version="1.0" encoding="utf-8"?>
<!-- Generator: Adobe Illustrator 22.0.1, SVG Export Plug-In . SVG Version: 6.00 Build 0)  -->
<svg version="1.1" id="Layer_1" xmlns="http://www.w3.org/2000/svg" xmlns:xlink="http://www.w3.org/1999/xlink" x="0px" y="0px"
	 viewBox="0 0 176 64" style="enable-background:new 0 0 176 64;" xml:space="preserve">
<style type="text/css">
	.st0{fill:#2E3654;}
	.st1{fill:#007AC2;}
	.st2{fill:#575756;}
	.st3{fill:#FFFFFF;}
	.st4{fill:#007AC1;}
	.st5{opacity:0.75;fill:#007AC2;enable-background:new    ;}
</style>
<g>
	<path class="st0" d="M23.7,202.8c1.2,0,2.2,0.4,3,1.2c0.8,0.8,1.2,1.9,1.2,3.1s-0.4,2.2-1.2,3.1s-1.8,1.2-3,1.2
		c-1.2,0-2.2-0.4-3-1.2s-1.2-1.9-1.2-3.1c0-1.2,0.4-2.2,1.2-3.1C21.5,203.2,22.5,202.8,23.7,202.8z M26,207.1c0-0.7-0.2-1.3-0.7-1.7
		s-1-0.7-1.6-0.7c-0.6,0-1.2,0.2-1.6,0.7c-0.4,0.4-0.7,1-0.7,1.7c0,0.7,0.2,1.2,0.7,1.7c0.4,0.5,1,0.7,1.6,0.7
		c0.6,0,1.2-0.2,1.6-0.7C25.8,208.3,26,207.7,26,207.1z M48.6,202.2c0,2.5-0.9,4.7-2.7,6.5c-1.8,1.8-4,2.7-6.5,2.7
		c-2.5,0-4.7-0.9-6.5-2.7s-2.7-3.9-2.7-6.5c0-2.6,0.9-4.8,2.7-6.6c1.8-1.8,4-2.8,6.5-2.8c2.6,0,4.8,0.9,6.6,2.8
		C47.7,197.4,48.6,199.6,48.6,202.2z M46,202.2c0-1.9-0.6-3.6-2-4.9s-2.9-2-4.8-2c-1.9,0-3.4,0.7-4.7,2.1c-1.3,1.4-1.9,3-1.9,4.8
		c0,1.8,0.7,3.4,1.9,4.7c1.3,1.3,2.8,2,4.7,2c1.8,0,3.4-0.6,4.7-2C45.4,205.6,46,204,46,202.2z M37,202.2c0-0.7,0.2-1.3,0.6-1.8
		s1-0.8,1.8-0.7c0.7,0,1.2,0.3,1.7,0.8c0.5,0.5,0.7,1.1,0.6,1.8c0,0.6-0.3,1.1-0.7,1.6c-0.4,0.4-1,0.7-1.6,0.7
		c-0.7,0-1.3-0.2-1.7-0.6C37.2,203.3,37,202.8,37,202.2z M55.9,205.9l8.2,3.3v2.5l-12.6-5.1l5.8-5l-5.6-4.9l12.4-4.7v2.5l-7.7,3
		l4.5,4L55.9,205.9z M69,211.4h-2.4v-18.6H69V211.4z M76.2,202.8c1.2,0,2.2,0.4,3,1.2s1.2,1.9,1.2,3.1s-0.4,2.2-1.2,3.1
		s-1.8,1.2-3,1.2c-1.2,0-2.2-0.4-3-1.2s-1.2-1.9-1.2-3.1c0-1.2,0.4-2.2,1.2-3.1C74,203.2,75,202.8,76.2,202.8z M78.5,207.1
		c0-0.7-0.2-1.3-0.7-1.7s-1-0.7-1.6-0.7c-0.6,0-1.2,0.2-1.6,0.7c-0.4,0.4-0.7,1-0.7,1.7c0,0.7,0.2,1.2,0.7,1.7
		c0.4,0.5,1,0.7,1.6,0.7c0.6,0,1.2-0.2,1.6-0.7C78.3,208.3,78.5,207.7,78.5,207.1z M97.2,192.8l-6,9.2l6,9.3h-2.7l-4.7-7.3l-4.7,7.3
		h-2.6l6-9.3l-6-9.3H97.2z M86.5,194.7l3.4,5.3l3.4-5.3H86.5z M126.1,202.8c1.2,0,2.2,0.4,3,1.2s1.2,1.9,1.2,3.1s-0.4,2.2-1.2,3.1
		s-1.8,1.2-3,1.2c-1.2,0-2.2-0.4-3-1.2s-1.2-1.9-1.2-3.1c0-1.2,0.4-2.2,1.2-3.1C123.9,203.2,124.9,202.8,126.1,202.8z M128.4,207.1
		c0-0.7-0.2-1.3-0.7-1.7s-1-0.7-1.6-0.7c-0.6,0-1.2,0.2-1.6,0.7c-0.4,0.4-0.7,1-0.7,1.7c0,0.7,0.2,1.2,0.7,1.7
		c0.4,0.5,1,0.7,1.6,0.7c0.6,0,1.2-0.2,1.6-0.7C128.2,208.3,128.4,207.7,128.4,207.1z M134.9,211.4h-2.4v-18.6h2.4V211.4z
		 M142.1,202.8c1.2,0,2.2,0.4,3,1.2s1.2,1.9,1.2,3.1s-0.4,2.2-1.2,3.1s-1.8,1.2-3,1.2c-1.2,0-2.2-0.4-3-1.2s-1.2-1.9-1.2-3.1
		c0-1.2,0.4-2.2,1.2-3.1S140.9,202.8,142.1,202.8z M144.4,207.1c0-0.7-0.2-1.3-0.7-1.7s-1-0.7-1.6-0.7c-0.6,0-1.2,0.2-1.6,0.7
		c-0.4,0.4-0.7,1-0.7,1.7c0,0.7,0.2,1.2,0.7,1.7c0.4,0.5,1,0.7,1.6,0.7c0.6,0,1.2-0.2,1.6-0.7C144.2,208.3,144.4,207.7,144.4,207.1z
		 M162.2,211.4h-13.8v-18.6h13.8v2.5h-11.3v13.7h11.3V211.4z M169.6,203.3c1.2,0,2.2,0.4,3,1.2c0.8,0.8,1.2,1.7,1.2,2.9
		c0,1.1-0.4,2.1-1.2,2.8c-0.8,0.8-1.8,1.2-3,1.2c-1.2,0-2.2-0.4-3-1.2s-1.2-1.7-1.2-2.8c0-1.1,0.4-2.1,1.2-2.9
		S168.4,203.3,169.6,203.3z M169.7,192.8c1.2,0,2.2,0.4,3,1.2c0.8,0.8,1.2,1.7,1.2,2.9c0,1.1-0.4,2.1-1.2,2.8
		c-0.8,0.8-1.8,1.2-3,1.2c-1.2,0-2.2-0.4-3-1.2s-1.2-1.7-1.2-2.8c0-1.1,0.4-2.1,1.2-2.9C167.5,193.2,168.5,192.8,169.7,192.8z
		 M172.1,207.3c0-0.7-0.2-1.2-0.7-1.7c-0.5-0.5-1-0.7-1.7-0.7c-0.7,0-1.2,0.2-1.7,0.7s-0.7,1-0.7,1.7c0,0.7,0.2,1.2,0.7,1.7
		s1,0.7,1.7,0.7c0.7,0,1.3-0.2,1.7-0.7C171.8,208.5,172.1,208,172.1,207.3z M172.1,196.8c0-0.7-0.2-1.3-0.7-1.7
		c-0.5-0.5-1-0.7-1.7-0.7c-0.7,0-1.2,0.2-1.7,0.7s-0.7,1-0.7,1.7c0,0.7,0.2,1.2,0.7,1.7c0.5,0.5,1,0.7,1.7,0.7
		c0.7,0,1.3-0.2,1.7-0.7C171.9,198,172.1,197.5,172.1,196.8z M194.9,202.2c0,2.5-1,4.7-2.7,6.5c-1.8,1.8-3.9,2.7-6.5,2.7
		c-2.5,0-4.6-0.9-6.4-2.7c-1.8-1.8-2.7-3.9-2.7-6.5c0-2.6,0.8-4.8,2.6-6.7c1.8-1.8,3.9-2.7,6.5-2.7c2.6,0,4.7,0.9,6.5,2.8
		C194,197.4,194.9,199.6,194.9,202.2z M192.4,202.1c0-1.9-0.7-3.6-2-4.9c-1.3-1.4-2.8-2-4.6-2c-1.9,0-3.5,0.7-4.7,2.1
		c-1.3,1.4-1.9,3-1.9,4.9c0.1,1.8,0.7,3.4,2,4.7c1.3,1.3,2.8,2,4.6,2c1.8,0,3.3-0.7,4.6-2C191.6,205.5,192.3,203.9,192.4,202.1z
		 M222.3,211.4h-2.4v-18.6h2.4V211.4z M258.5,203.3h-4.4v8.1h-2.5v-8.1h-4.4v-2.4h4.4v-8.1h2.5v8.1h4.4V203.3z M280.1,202.2
		c0,2.5-0.9,4.7-2.7,6.5c-1.8,1.8-4,2.7-6.5,2.7c-2.5,0-4.7-0.9-6.5-2.7s-2.7-3.9-2.7-6.5c0-2.6,0.9-4.8,2.7-6.6
		c1.8-1.8,4-2.8,6.5-2.8c2.6,0,4.8,0.9,6.6,2.8C279.2,197.4,280.1,199.6,280.1,202.2z M277.5,202.2c0-1.9-0.6-3.6-2-4.9
		c-1.3-1.4-2.9-2-4.8-2c-1.9,0-3.4,0.7-4.7,2.1c-1.3,1.4-1.9,3-1.9,4.8c0,1.8,0.7,3.4,1.9,4.7c1.3,1.3,2.8,2,4.7,2
		c1.8,0,3.4-0.6,4.7-2C276.8,205.6,277.5,204,277.5,202.2z M268.4,202.2c0-0.7,0.2-1.3,0.6-1.8s1-0.8,1.8-0.7c0.7,0,1.2,0.3,1.7,0.8
		c0.5,0.5,0.7,1.1,0.6,1.8c0,0.6-0.3,1.1-0.7,1.6s-1,0.7-1.6,0.7c-0.7,0-1.3-0.2-1.7-0.6C268.7,203.3,268.5,202.8,268.4,202.2z
		 M287.3,202.8c1.2,0,2.2,0.4,3,1.2s1.2,1.9,1.2,3.1s-0.4,2.2-1.2,3.1c-0.8,0.8-1.8,1.2-3,1.2c-1.2,0-2.2-0.4-3-1.2
		c-0.8-0.8-1.2-1.9-1.2-3.1c0-1.2,0.4-2.2,1.2-3.1C285.1,203.2,286.1,202.8,287.3,202.8z M289.6,207.1c0-0.7-0.2-1.3-0.7-1.7
		s-1-0.7-1.6-0.7c-0.6,0-1.2,0.2-1.6,0.7c-0.4,0.4-0.7,1-0.7,1.7c0,0.7,0.2,1.2,0.7,1.7c0.4,0.5,1,0.7,1.6,0.7
		c0.6,0,1.2-0.2,1.6-0.7C289.4,208.3,289.6,207.7,289.6,207.1z M306.3,208.9v-16.2h2.5v18.6h-15.1v-18.6h2.5v16.2L306.3,208.9
		L306.3,208.9z M315.9,202.8c1.2,0,2.2,0.4,3,1.2s1.2,1.9,1.2,3.1s-0.4,2.2-1.2,3.1c-0.8,0.8-1.8,1.2-3,1.2c-1.2,0-2.2-0.4-3-1.2
		c-0.8-0.8-1.2-1.9-1.2-3.1c0-1.2,0.4-2.2,1.2-3.1C313.7,203.2,314.7,202.8,315.9,202.8z M318.2,207.1c0-0.7-0.2-1.3-0.7-1.7
		s-1-0.7-1.6-0.7c-0.6,0-1.2,0.2-1.6,0.7c-0.4,0.4-0.7,1-0.7,1.7c0,0.7,0.2,1.2,0.7,1.7c0.4,0.5,1,0.7,1.6,0.7
		c0.6,0,1.2-0.2,1.6-0.7C318,208.3,318.2,207.7,318.2,207.1z M321.8,211.4l8-8.6l-5.3-5.3l12.4-4.8v2.5l-7.6,3l4.4,4.4l-8.2,8.8
		L321.8,211.4L321.8,211.4z M350.1,203.3h-4.4v8.1h-2.5v-8.1h-4.4v-2.4h4.4v-8.1h2.5v8.1h4.4V203.3z M385.5,192.7l7.8,18.6h-2.7
		l-6.5-15.5l-6.6,15.5h-2.7l7.9-18.6H385.5z M421.8,203.3c1.2,0,2.2,0.4,3,1.2c0.8,0.8,1.2,1.7,1.2,2.9c0,1.1-0.4,2.1-1.2,2.8
		c-0.8,0.8-1.8,1.2-3,1.2c-1.2,0-2.2-0.4-3-1.2c-0.8-0.8-1.2-1.7-1.2-2.8c0-1.1,0.4-2.1,1.2-2.9S420.6,203.3,421.8,203.3z
		 M421.9,192.8c1.2,0,2.2,0.4,3,1.2c0.8,0.8,1.2,1.7,1.2,2.9c0,1.1-0.4,2.1-1.2,2.8c-0.8,0.8-1.8,1.2-3,1.2c-1.2,0-2.2-0.4-3-1.2
		s-1.2-1.7-1.2-2.8c0-1.1,0.4-2.1,1.2-2.9C419.7,193.2,420.7,192.8,421.9,192.8z M424.3,207.3c0-0.7-0.2-1.2-0.7-1.7
		c-0.5-0.5-1-0.7-1.7-0.7c-0.7,0-1.2,0.2-1.7,0.7c-0.5,0.5-0.7,1-0.7,1.7c0,0.7,0.2,1.2,0.7,1.7c0.5,0.5,1,0.7,1.7,0.7
		c0.7,0,1.3-0.2,1.7-0.7C424,208.5,424.3,208,424.3,207.3z M424.3,196.8c0-0.7-0.2-1.3-0.7-1.7c-0.5-0.5-1-0.7-1.7-0.7
		c-0.7,0-1.2,0.2-1.7,0.7s-0.7,1-0.7,1.7c0,0.7,0.2,1.2,0.7,1.7c0.5,0.5,1,0.7,1.7,0.7c0.7,0,1.3-0.2,1.7-0.7
		C424.1,198,424.3,197.5,424.3,196.8z M442.5,211.4h-13.8v-18.6h13.8v2.5h-11.3v13.7h11.3V211.4z M445.4,211.4l8-8.6l-5.3-5.3
		l12.4-4.8v2.5l-7.6,3l4.4,4.4l-8.2,8.8L445.4,211.4L445.4,211.4z M466.6,202.8c1.2,0,2.2,0.4,3,1.2c0.8,0.8,1.2,1.9,1.2,3.1
		s-0.4,2.2-1.2,3.1c-0.8,0.8-1.8,1.2-3,1.2c-1.2,0-2.2-0.4-3-1.2c-0.8-0.8-1.2-1.9-1.2-3.1c0-1.2,0.4-2.2,1.2-3.1
		C464.4,203.2,465.4,202.8,466.6,202.8z M468.9,207.1c0-0.7-0.2-1.3-0.7-1.7s-1-0.7-1.6-0.7c-0.6,0-1.2,0.2-1.6,0.7
		c-0.4,0.4-0.7,1-0.7,1.7c0,0.7,0.2,1.2,0.7,1.7c0.4,0.5,1,0.7,1.6,0.7c0.6,0,1.2-0.2,1.6-0.7C468.7,208.3,468.9,207.7,468.9,207.1z
		 M485.6,208.9v-16.2h2.5v18.6H473v-18.6h2.5v16.2L485.6,208.9L485.6,208.9z M495.2,202.8c1.2,0,2.2,0.4,3,1.2s1.2,1.9,1.2,3.1
		s-0.4,2.2-1.2,3.1c-0.8,0.8-1.8,1.2-3,1.2c-1.2,0-2.2-0.4-3-1.2c-0.8-0.8-1.2-1.9-1.2-3.1c0-1.2,0.4-2.2,1.2-3.1
		S494,202.8,495.2,202.8z M497.6,207.1c0-0.7-0.2-1.3-0.7-1.7s-1-0.7-1.6-0.7c-0.6,0-1.2,0.2-1.6,0.7c-0.4,0.4-0.7,1-0.7,1.7
		c0,0.7,0.2,1.2,0.7,1.7c0.4,0.5,1,0.7,1.6,0.7c0.6,0,1.2-0.2,1.6-0.7C497.3,208.3,497.6,207.7,497.6,207.1z M516.1,208.9v2.5h-14.5
		v-18.6h14.5v2.5h-12v5.6h8.4v2.5h-8.4v5.6L516.1,208.9L516.1,208.9z"/>
</g>
<g>
	<rect x="21.5" y="229" class="st1" width="2.6" height="12.9"/>
	<path class="st1" d="M34.1,241.8v-5.4c0-0.8-0.2-1.4-0.5-1.8c-0.4-0.4-0.9-0.6-1.7-0.6c-0.4,0-0.8,0.1-1.2,0.3
		c-0.4,0.2-0.7,0.4-1,0.7v6.8h-2.5v-9.4h1.8l0.4,0.9c0.7-0.7,1.7-1,3-1c1.3,0,2.3,0.3,3.1,1c0.7,0.7,1.1,1.6,1.1,2.8v5.7L34.1,241.8
		L34.1,241.8z"/>
	<path class="st1" d="M38.6,241.2l0.9-1.7c0.8,0.5,1.6,0.8,2.6,0.8c1,0,1.5-0.3,1.5-0.9c0-0.4-0.2-0.7-0.5-0.9
		c-0.3-0.2-0.9-0.5-1.7-0.8c-1.9-0.7-2.8-1.6-2.8-2.8c0-0.8,0.3-1.4,1.1-1.9c0.7-0.4,1.6-0.7,2.8-0.7c1.1,0,2.2,0.2,3.2,0.7
		l-0.7,1.7c-0.5-0.4-1.3-0.6-2.3-0.6c-0.9,0-1.3,0.3-1.3,0.9c0,0.2,0.1,0.4,0.4,0.7c0.3,0.2,0.9,0.5,1.9,0.8c0.9,0.3,1.6,0.7,2,1.2
		c0.4,0.5,0.6,1,0.6,1.7c0,0.9-0.4,1.5-1.1,2c-0.8,0.5-1.8,0.7-3.1,0.7c-0.7,0-1.3,0-1.7-0.1C39.9,241.8,39.3,241.6,38.6,241.2"/>
	<path class="st1" d="M48.7,234.2h-1.3v-1.8h1.3v-1.9l2.5-0.8v2.7h3v1.8h-3v4.1c0,0.7,0.1,1.1,0.4,1.4c0.2,0.3,0.7,0.4,1.3,0.4
		c0.6,0,1.2-0.1,1.7-0.4v2c-0.6,0.2-1.4,0.3-2.5,0.3c-1.1,0-1.9-0.3-2.5-0.8c-0.6-0.5-0.9-1.3-0.9-2.3
		C48.7,239,48.7,234.2,48.7,234.2z"/>
	<path class="st1" d="M57.2,241.8v-7.6h-1.4v-1.8h4v9.4L57.2,241.8L57.2,241.8z M58.5,228.8c0.4,0,0.8,0.1,1.1,0.4
		c0.3,0.2,0.4,0.5,0.4,0.9c0,0.4-0.2,0.7-0.4,0.9c-0.3,0.3-0.6,0.4-1.1,0.4c-0.4,0-0.7-0.1-1-0.4c-0.3-0.2-0.4-0.5-0.4-0.9
		c0-0.3,0.2-0.7,0.4-0.9C57.7,228.9,58.1,228.8,58.5,228.8"/>
	<path class="st1" d="M63.1,234.2h-1.3v-1.8h1.3v-1.9l2.6-0.8v2.7h3v1.8h-3v4.1c0,0.7,0.1,1.1,0.4,1.4c0.2,0.3,0.6,0.4,1.3,0.4
		c0.6,0,1.2-0.1,1.7-0.4v2c-0.6,0.2-1.4,0.3-2.5,0.3c-1.1,0-1.9-0.3-2.5-0.8c-0.6-0.5-0.9-1.3-0.9-2.3L63.1,234.2L63.1,234.2z"/>
	<path class="st1" d="M80.4,241.8v-9.4h-2.5v6.5c-0.2,0.3-0.5,0.6-1,0.9c-0.5,0.3-1,0.4-1.6,0.4c-1.2,0-1.9-0.6-1.9-1.8v-5.9h-2.5
		v6.1c0,2.3,1.3,3.5,3.8,3.5c0.5,0,1.1-0.1,1.7-0.3c0.6-0.2,1.1-0.4,1.5-0.7v0.8H80.4z"/>
	<path class="st1" d="M83.5,239c0,1,0.3,1.7,0.9,2.3c0.6,0.5,1.4,0.8,2.5,0.8c1.1,0,1.9-0.1,2.5-0.3v-2c-0.5,0.3-1.1,0.4-1.7,0.4
		c-0.6,0-1-0.1-1.3-0.4c-0.2-0.3-0.4-0.8-0.4-1.4v-4.1h3v-1.8h-3v-2.7l-2.5,0.8v1.9h-1.3v1.8h1.3L83.5,239L83.5,239z"/>
	<polygon class="st1" points="107.5,242 100.3,233.9 100.3,241.8 97.7,241.8 97.7,229 99,229 106,236.8 106,229 108.6,229 
		108.6,242 	"/>
	<path class="st1" d="M117.5,240.9c-0.2,0.3-0.6,0.6-1.2,0.8c-0.6,0.2-1.2,0.3-1.8,0.3c-1.2,0-2.1-0.3-2.8-0.7c-0.7-0.5-1-1.2-1-2.2
		c0-1.1,0.5-1.9,1.4-2.5c0.9-0.6,2.3-0.9,4-0.9c0.3,0,0.6,0,1,0.1c0-1.1-0.8-1.7-2.4-1.7c-0.9,0-1.7,0.1-2.4,0.4l-0.5-1.7
		c0.9-0.3,1.9-0.5,3.1-0.5c1.6,0,2.9,0.3,3.6,1c0.8,0.6,1.1,1.9,1.1,3.7v2c0,1.2,0.3,2.1,0.9,2.3c-0.2,0.3-0.5,0.5-0.7,0.6
		c-0.3,0.1-0.6,0.1-0.9,0.1c-0.4,0-0.7-0.1-1-0.3C117.8,241.4,117.6,241.2,117.5,240.9 M117.2,237.4c-0.4-0.1-0.8-0.1-1-0.1
		c-2,0-3,0.6-3,1.7c0,0.8,0.6,1.3,1.7,1.3c1.5,0,2.3-0.7,2.3-2V237.4z"/>
	<path class="st1" d="M122.9,234.2h-1.3v-1.8h1.3v-1.9l2.5-0.8v2.7h3v1.8h-3v4.1c0,0.7,0.1,1.1,0.4,1.4c0.2,0.3,0.7,0.4,1.3,0.4
		c0.6,0,1.2-0.1,1.7-0.4v2c-0.6,0.2-1.4,0.3-2.5,0.3c-1.1,0-1.9-0.3-2.5-0.8c-0.6-0.5-0.9-1.3-0.9-2.3V234.2z"/>
	<path class="st1" d="M131.4,241.8v-7.6H130v-1.8h3.9v9.4L131.4,241.8L131.4,241.8z M132.7,228.8c0.4,0,0.8,0.1,1,0.4
		c0.3,0.2,0.4,0.5,0.4,0.9c0,0.4-0.1,0.7-0.4,0.9c-0.3,0.3-0.6,0.4-1,0.4c-0.4,0-0.7-0.1-1-0.4c-0.3-0.2-0.4-0.5-0.4-0.9
		c0-0.3,0.2-0.7,0.4-0.9C131.9,228.9,132.3,228.8,132.7,228.8"/>
	<path class="st1" d="M136.2,237.1c0-1.4,0.5-2.6,1.4-3.5c0.9-0.9,2.2-1.3,3.8-1.3c1.6,0,2.9,0.4,3.8,1.3c0.9,0.9,1.4,2,1.4,3.5
		c0,1.5-0.5,2.7-1.4,3.6c-0.9,0.9-2.2,1.3-3.8,1.3c-1.7,0-2.9-0.4-3.8-1.3C136.6,239.8,136.2,238.6,136.2,237.1 M138.8,237.1
		c0,2.1,0.9,3.1,2.6,3.1c0.8,0,1.4-0.3,1.9-0.8c0.5-0.5,0.7-1.3,0.7-2.3c0-2-0.9-3-2.6-3c-0.8,0-1.4,0.3-1.9,0.8
		C139,235.4,138.8,236.2,138.8,237.1"/>
	<path class="st1" d="M155.6,241.8v-5.4c0-0.8-0.2-1.4-0.5-1.8c-0.4-0.4-0.9-0.6-1.7-0.6c-0.4,0-0.8,0.1-1.2,0.3
		c-0.4,0.2-0.7,0.4-1,0.7v6.8h-2.6v-9.4h1.8l0.5,0.9c0.7-0.7,1.7-1,3-1c1.3,0,2.3,0.3,3.1,1c0.7,0.7,1.1,1.6,1.1,2.8v5.7
		L155.6,241.8L155.6,241.8z"/>
	<path class="st1" d="M166.9,240.9c-0.2,0.3-0.6,0.6-1.2,0.8c-0.6,0.2-1.2,0.3-1.8,0.3c-1.2,0-2.1-0.3-2.8-0.7c-0.7-0.5-1-1.2-1-2.2
		c0-1.1,0.5-1.9,1.4-2.5c0.9-0.6,2.3-0.9,4-0.9c0.3,0,0.6,0,1,0.1c0-1.1-0.8-1.7-2.4-1.7c-1,0-1.7,0.1-2.4,0.4l-0.5-1.7
		c0.9-0.3,1.9-0.5,3.1-0.5c1.6,0,2.9,0.3,3.6,1s1.2,1.9,1.2,3.7v2c0,1.2,0.3,2.1,0.9,2.3c-0.2,0.3-0.4,0.5-0.7,0.6
		c-0.3,0.1-0.6,0.1-0.9,0.1c-0.4,0-0.7-0.1-1-0.3C167.2,241.4,167,241.2,166.9,240.9 M166.6,237.4c-0.4-0.1-0.7-0.1-1-0.1
		c-2,0-3,0.6-3,1.7c0,0.8,0.6,1.3,1.7,1.3c1.5,0,2.3-0.7,2.3-2L166.6,237.4L166.6,237.4z"/>
	<path class="st1" d="M172.3,229l2.6-0.5V239c0,1.1,0.4,1.8,1.2,2.1c-0.4,0.7-1.1,1-2,1c-1.1,0-1.7-0.7-1.7-2.1V229z"/>
	<path class="st1" d="M191.2,241.8v-0.6c-0.2,0.2-0.6,0.3-1.1,0.5c-0.5,0.2-1,0.2-1.5,0.2c-1.5,0-2.7-0.4-3.6-1.2
		c-0.8-0.8-1.3-2-1.3-3.5c0-1.5,0.5-2.7,1.5-3.6c1-0.9,2.2-1.4,3.7-1.4c0.8,0,1.6,0.1,2.2,0.4V229l2.6-0.5v13.4L191.2,241.8
		L191.2,241.8z M191.2,234.7c-0.5-0.4-1.1-0.6-1.7-0.6c-1,0-1.8,0.3-2.3,0.8c-0.5,0.5-0.8,1.3-0.8,2.3c0,2,1.1,2.9,3.2,2.9
		c0.2,0,0.5-0.1,0.9-0.2c0.3-0.1,0.6-0.3,0.7-0.4L191.2,234.7L191.2,234.7z"/>
	<path class="st1" d="M206,237.9h-7.8c0.1,0.7,0.4,1.3,0.9,1.7c0.5,0.4,1.3,0.6,2.2,0.6c1.1,0,2-0.3,2.6-0.8l1,1.7
		c-0.9,0.6-2.2,0.9-4,0.9c-1.7,0-3-0.4-3.9-1.3c-1-0.8-1.4-2-1.4-3.5c0-1.5,0.5-2.7,1.6-3.6c1.1-0.9,2.3-1.4,3.8-1.4
		c1.6,0,2.8,0.4,3.8,1.2c1,0.8,1.4,1.8,1.4,3.1C206.2,236.9,206.1,237.3,206,237.9 M198.3,236.2h5.3c-0.2-1.4-1-2.1-2.6-2.1
		C199.6,234.1,198.7,234.8,198.3,236.2"/>
	<path class="st1" d="M209.2,241.9c0.4,0.1,1,0.1,1.7,0.1c1.3,0,2.3-0.3,3-0.7c0.7-0.5,1.1-1.2,1.1-2c0-0.7-0.2-1.2-0.6-1.7
		c-0.4-0.5-1.1-0.8-2.1-1.2c-1-0.3-1.6-0.6-1.9-0.8c-0.3-0.2-0.4-0.4-0.4-0.7c0-0.6,0.4-0.9,1.3-0.9c1,0,1.8,0.2,2.3,0.6l0.7-1.7
		c-1-0.4-2.1-0.7-3.2-0.7c-1.1,0-2,0.2-2.7,0.7c-0.7,0.5-1.1,1.1-1.1,1.9c0,1.2,0.9,2.2,2.8,2.8c0.8,0.3,1.4,0.6,1.7,0.8
		c0.3,0.2,0.5,0.5,0.5,0.9c0,0.6-0.5,0.9-1.5,0.9c-1,0-1.8-0.3-2.6-0.8l-0.9,1.7C208.2,241.6,208.8,241.8,209.2,241.9"/>
	<path class="st1" d="M226.2,237.1v4.7h-2.6V229c1.8-0.1,2.8-0.1,3.1-0.1c2.3,0,4.1,0.3,5.1,0.9c1.1,0.6,1.6,1.6,1.6,2.9
		c0,2.9-2,4.4-6,4.4C227.1,237.2,226.7,237.1,226.2,237.1 M226.2,231v4.1c0.5,0.1,0.8,0.1,1.1,0.1c1.2,0,2.1-0.2,2.6-0.5
		c0.6-0.3,0.9-0.9,0.9-1.7c0-1.4-1.3-2-3.7-2C226.7,230.9,226.4,231,226.2,231"/>
	<path class="st1" d="M233.9,237.1c0-1.4,0.5-2.6,1.4-3.5c1-0.9,2.2-1.3,3.8-1.3c1.7,0,2.9,0.4,3.8,1.3c0.9,0.9,1.4,2,1.4,3.5
		c0,1.5-0.4,2.7-1.4,3.6c-0.9,0.9-2.2,1.3-3.8,1.3c-1.7,0-2.9-0.4-3.8-1.3C234.3,239.8,233.9,238.6,233.9,237.1 M236.5,237.1
		c0,2.1,0.9,3.1,2.6,3.1c0.8,0,1.4-0.3,1.9-0.8c0.5-0.5,0.7-1.3,0.7-2.3c0-2-0.9-3-2.6-3c-0.8,0-1.4,0.3-1.9,0.8
		C236.7,235.4,236.5,236.2,236.5,237.1"/>
	<path class="st1" d="M247.3,241.9c0.5,0.1,1,0.1,1.8,0.1c1.3,0,2.3-0.3,3-0.7c0.7-0.5,1.1-1.2,1.1-2c0-0.7-0.2-1.2-0.6-1.7
		c-0.4-0.5-1.1-0.8-2.1-1.2c-1-0.3-1.6-0.6-1.9-0.8c-0.3-0.2-0.5-0.4-0.5-0.7c0-0.6,0.5-0.9,1.3-0.9c1,0,1.8,0.2,2.3,0.6l0.7-1.7
		c-1-0.4-2.1-0.7-3.2-0.7c-1.1,0-2,0.2-2.7,0.7c-0.7,0.5-1.1,1.1-1.1,1.9c0,1.2,0.9,2.2,2.8,2.8c0.8,0.3,1.4,0.6,1.7,0.8
		c0.3,0.2,0.5,0.5,0.5,0.9c0,0.6-0.5,0.9-1.5,0.9c-1,0-1.8-0.3-2.6-0.8l-0.9,1.7C246.3,241.6,246.9,241.8,247.3,241.9"/>
	<path class="st1" d="M255.6,234.2h-1.3v-1.8h1.3v-1.9l2.5-0.8v2.7h3v1.8h-3v4.1c0,0.7,0.1,1.1,0.4,1.4c0.2,0.3,0.6,0.4,1.3,0.4
		c0.6,0,1.2-0.1,1.7-0.4v2c-0.6,0.2-1.4,0.3-2.5,0.3c-1.1,0-1.9-0.3-2.5-0.8c-0.6-0.5-0.9-1.3-0.9-2.3L255.6,234.2L255.6,234.2z"/>
	<path class="st1" d="M273.1,237.9h-7.7c0,0.7,0.3,1.3,0.9,1.7c0.6,0.4,1.3,0.6,2.2,0.6c1.1,0,2-0.3,2.6-0.8l1,1.7
		c-0.9,0.6-2.2,0.9-4,0.9c-1.6,0-3-0.4-3.9-1.3c-0.9-0.8-1.4-2-1.4-3.5c0-1.5,0.5-2.7,1.6-3.6c1.1-0.9,2.3-1.4,3.8-1.4
		c1.6,0,2.8,0.4,3.8,1.2c1,0.8,1.4,1.8,1.4,3.1C273.3,236.9,273.3,237.3,273.1,237.9 M265.5,236.2h5.3c-0.2-1.4-1.1-2.1-2.6-2.1
		C266.7,234.1,265.8,234.8,265.5,236.2"/>
	<path class="st1" d="M276.4,241.9c0.4,0.1,1,0.1,1.7,0.1c1.3,0,2.3-0.3,3.1-0.7c0.7-0.5,1.1-1.2,1.1-2c0-0.7-0.2-1.2-0.6-1.7
		c-0.4-0.5-1.1-0.8-2.1-1.2c-0.9-0.3-1.6-0.6-1.8-0.8c-0.3-0.2-0.5-0.4-0.5-0.7c0-0.6,0.5-0.9,1.3-0.9c1,0,1.8,0.2,2.3,0.6l0.7-1.7
		c-1-0.4-2.1-0.7-3.2-0.7c-1.1,0-2,0.2-2.8,0.7c-0.7,0.5-1.1,1.1-1.1,1.9c0,1.2,0.9,2.2,2.8,2.8c0.8,0.3,1.4,0.6,1.7,0.8
		c0.3,0.2,0.4,0.5,0.4,0.9c0,0.6-0.5,0.9-1.5,0.9c-0.9,0-1.8-0.3-2.5-0.8l-0.9,1.7C275.4,241.6,275.9,241.8,276.4,241.9"/>
	<path class="st1" d="M300.2,237.9h-7.7c0,0.7,0.3,1.3,0.9,1.7c0.5,0.4,1.3,0.6,2.2,0.6c1.2,0,2-0.3,2.6-0.8l1,1.7
		c-0.9,0.6-2.2,0.9-4,0.9c-1.7,0-3-0.4-3.9-1.3c-0.9-0.8-1.4-2-1.4-3.5c0-1.5,0.5-2.7,1.6-3.6c1-0.9,2.3-1.4,3.8-1.4
		c1.6,0,2.8,0.4,3.8,1.2c0.9,0.8,1.4,1.8,1.4,3.1C300.4,236.9,300.4,237.3,300.2,237.9 M292.6,236.2h5.3c-0.2-1.4-1-2.1-2.6-2.1
		C293.8,234.1,292.9,234.8,292.6,236.2"/>
	<path class="st1" d="M302.9,239c0,1,0.3,1.7,0.9,2.3c0.6,0.5,1.4,0.8,2.5,0.8c1.1,0,1.9-0.1,2.5-0.3v-2c-0.5,0.3-1.1,0.4-1.7,0.4
		c-0.6,0-1-0.1-1.3-0.4c-0.3-0.3-0.4-0.8-0.4-1.4v-4.1h3v-1.8h-3v-2.7l-2.5,0.8v1.9h-1.3v1.8h1.3L302.9,239L302.9,239z"/>
	<polygon class="st1" points="327.7,231 327.7,229 315.4,229 315.4,231 320.1,231 320.1,241.8 322.8,241.8 322.8,231 	"/>
	<path class="st1" d="M339.1,236.6c0-1.3-0.5-2.3-1.4-3.1c-1-0.8-2.2-1.2-3.8-1.2c-1.5,0-2.8,0.5-3.8,1.4c-1,0.9-1.6,2.1-1.6,3.6
		c0,1.5,0.5,2.7,1.5,3.5c1,0.8,2.3,1.3,3.9,1.3c1.8,0,3.1-0.3,4-0.9l-1-1.7c-0.6,0.5-1.5,0.8-2.6,0.8c-0.9,0-1.7-0.2-2.2-0.6
		c-0.5-0.4-0.8-1-0.9-1.7h7.8C339,237.3,339.1,236.9,339.1,236.6 M334,234.1c1.6,0,2.4,0.7,2.6,2.1h-5.3
		C331.6,234.8,332.5,234.1,334,234.1 M334.5,228.6l-1.7,2.6h1.9l2.3-2.6H334.5z"/>
	<path class="st1" d="M341.6,229l2.5-0.5V239c0,1.1,0.4,1.8,1.2,2.1c-0.4,0.7-1.1,1-2,1c-1.2,0-1.7-0.7-1.7-2.1L341.6,229L341.6,229
		z"/>
	<path class="st1" d="M356.9,237.9h-7.7c0,0.7,0.3,1.3,0.9,1.7c0.5,0.4,1.3,0.6,2.2,0.6c1.1,0,2-0.3,2.6-0.8l1,1.7
		c-0.9,0.6-2.2,0.9-4,0.9c-1.6,0-2.9-0.4-3.9-1.3c-1-0.8-1.5-2-1.5-3.5c0-1.5,0.5-2.7,1.6-3.6c1.1-0.9,2.3-1.4,3.8-1.4
		c1.6,0,2.8,0.4,3.8,1.2c1,0.8,1.4,1.8,1.4,3.1C357.1,236.9,357.1,237.3,356.9,237.9 M349.3,236.2h5.3c-0.2-1.4-1.1-2.1-2.6-2.1
		C350.5,234.1,349.6,234.8,349.3,236.2 M355,228.6l-2.3,2.6h-1.9l1.7-2.6H355z"/>
	<path class="st1" d="M364.4,232.3c-1.8,0-3.3,0.5-4.3,1.3c-1.1,0.9-1.6,2.1-1.6,3.6s0.5,2.7,1.4,3.5c1,0.8,2.3,1.3,4,1.3
		c0.7,0,1.4,0,1.9-0.1c0.5-0.1,1.2-0.4,1.9-0.8l-0.9-1.7c-0.7,0.5-1.6,0.8-2.5,0.8c-2.2,0-3.2-1-3.2-3c0-1,0.3-1.7,0.8-2.3
		c0.6-0.5,1.3-0.8,2.3-0.8c1,0,1.8,0.2,2.4,0.7l1.1-1.6C366.7,232.6,365.6,232.3,364.4,232.3"/>
	<path class="st1" d="M369.1,237.1c0-1.4,0.5-2.6,1.4-3.5c1-0.9,2.2-1.3,3.8-1.3c1.7,0,2.9,0.4,3.8,1.3c0.9,0.9,1.4,2,1.4,3.5
		c0,1.5-0.5,2.7-1.4,3.6c-0.9,0.9-2.2,1.3-3.8,1.3c-1.6,0-2.9-0.4-3.8-1.3C369.5,239.8,369.1,238.6,369.1,237.1 M371.7,237.1
		c0,2.1,0.9,3.1,2.6,3.1c0.8,0,1.4-0.3,1.9-0.8c0.5-0.5,0.7-1.3,0.7-2.3c0-2-0.9-3-2.6-3c-0.8,0-1.4,0.3-1.9,0.8
		C371.9,235.4,371.7,236.2,371.7,237.1"/>
	<path class="st1" d="M394.1,241.8V236c0-1.2-0.6-1.9-1.9-1.9c-0.4,0-0.8,0.1-1.1,0.3c-0.4,0.2-0.6,0.4-0.7,0.7v6.8h-2.5v-6.2
		c0-0.5-0.2-0.8-0.5-1.1c-0.3-0.3-0.8-0.4-1.4-0.4c-0.3,0-0.7,0.1-1,0.3c-0.4,0.2-0.6,0.4-0.8,0.7v6.7h-2.5v-9.4h1.8l0.5,0.8
		c0.7-0.6,1.6-1,2.7-1c1.4,0,2.5,0.3,3.2,1c0.3-0.3,0.8-0.6,1.3-0.7c0.6-0.2,1.1-0.3,1.7-0.3c1.2,0,2.2,0.3,2.8,0.9
		c0.7,0.6,1,1.4,1,2.5v6.2L394.1,241.8L394.1,241.8z"/>
	<path class="st1" d="M411.9,241.8V236c0-1.2-0.6-1.9-1.9-1.9c-0.4,0-0.7,0.1-1.1,0.3c-0.4,0.2-0.6,0.4-0.7,0.7v6.8h-2.5v-6.2
		c0-0.5-0.2-0.8-0.5-1.1c-0.3-0.3-0.8-0.4-1.4-0.4c-0.3,0-0.7,0.1-1,0.3c-0.4,0.2-0.7,0.4-0.8,0.7v6.7h-2.5v-9.4h1.8l0.5,0.8
		c0.7-0.6,1.6-1,2.7-1c1.5,0,2.5,0.3,3.3,1c0.3-0.3,0.7-0.6,1.3-0.7c0.6-0.2,1.1-0.3,1.7-0.3c1.2,0,2.1,0.3,2.8,0.9
		c0.7,0.6,1,1.4,1,2.5v6.2L411.9,241.8L411.9,241.8z"/>
	<path class="st1" d="M424.1,241.8V241c-0.4,0.3-0.8,0.5-1.5,0.7c-0.6,0.2-1.2,0.3-1.7,0.3c-2.5,0-3.8-1.1-3.8-3.5v-6.1h2.5v5.9
		c0,1.2,0.6,1.8,1.9,1.8c0.6,0,1.1-0.1,1.6-0.4c0.5-0.3,0.8-0.5,1-0.9v-6.5h2.6v9.4H424.1z"/>
	<path class="st1" d="M438.9,241.8v-5.7c0-1.2-0.4-2.1-1.1-2.8c-0.7-0.7-1.8-1-3-1c-1.3,0-2.4,0.3-3,1l-0.5-0.9h-1.8v9.4h2.6v-6.8
		c0.2-0.3,0.6-0.5,1-0.7c0.4-0.2,0.8-0.3,1.2-0.3c0.8,0,1.4,0.2,1.7,0.6c0.3,0.4,0.5,0.9,0.5,1.8v5.4L438.9,241.8L438.9,241.8z"/>
	<path class="st1" d="M442.3,241.8v-7.6h-1.4v-1.8h4v9.4L442.3,241.8L442.3,241.8z M443.6,228.8c0.4,0,0.8,0.1,1.1,0.4
		c0.3,0.2,0.4,0.5,0.4,0.9c0,0.4-0.1,0.7-0.4,0.9c-0.3,0.3-0.6,0.4-1.1,0.4c-0.4,0-0.7-0.1-1-0.4c-0.3-0.2-0.4-0.5-0.4-0.9
		c0-0.3,0.1-0.7,0.4-0.9C442.9,228.9,443.2,228.8,443.6,228.8"/>
	<path class="st1" d="M456.3,233.2l-1.1,1.6c-0.6-0.5-1.4-0.7-2.4-0.7c-1,0-1.7,0.3-2.3,0.8c-0.6,0.6-0.8,1.3-0.8,2.3
		c0,2,1.1,3,3.2,3c0.9,0,1.8-0.3,2.5-0.8l0.9,1.7c-0.7,0.4-1.4,0.7-1.9,0.8c-0.5,0.1-1.2,0.1-1.9,0.1c-1.7,0-3-0.4-4-1.3
		c-1-0.9-1.4-2-1.4-3.5s0.5-2.7,1.6-3.6c1.1-0.9,2.5-1.3,4.3-1.3C454.3,232.3,455.4,232.6,456.3,233.2"/>
	<path class="st1" d="M464.5,240.9c-0.2,0.3-0.6,0.6-1.2,0.8c-0.6,0.2-1.2,0.3-1.8,0.3c-1.2,0-2.1-0.3-2.8-0.7c-0.7-0.5-1-1.2-1-2.2
		c0-1.1,0.5-1.9,1.4-2.5c0.9-0.6,2.3-0.9,4-0.9c0.3,0,0.7,0,1,0.1c0-1.1-0.8-1.7-2.4-1.7c-0.9,0-1.7,0.1-2.4,0.4l-0.5-1.7
		c0.9-0.3,1.9-0.5,3.1-0.5c1.7,0,2.9,0.3,3.6,1c0.8,0.6,1.1,1.9,1.1,3.7v2c0,1.2,0.3,2.1,0.9,2.3c-0.2,0.3-0.5,0.5-0.7,0.6
		c-0.3,0.1-0.6,0.1-0.9,0.1c-0.3,0-0.7-0.1-1-0.3C464.8,241.4,464.6,241.2,464.5,240.9 M464.2,237.4c-0.4-0.1-0.8-0.1-1-0.1
		c-2,0-3,0.6-3,1.7c0,0.8,0.6,1.3,1.7,1.3c1.5,0,2.3-0.7,2.3-2V237.4z"/>
	<path class="st1" d="M469.9,234.2h-1.3v-1.8h1.3v-1.9l2.5-0.8v2.7h3v1.8h-3v4.1c0,0.7,0.1,1.1,0.4,1.4c0.3,0.3,0.7,0.4,1.3,0.4
		c0.6,0,1.2-0.1,1.7-0.4v2c-0.6,0.2-1.4,0.3-2.5,0.3c-1.1,0-1.9-0.3-2.5-0.8c-0.6-0.5-0.9-1.3-0.9-2.3V234.2z"/>
	<path class="st1" d="M478.4,241.8v-7.6H477v-1.8h4v9.4L478.4,241.8L478.4,241.8z M479.7,228.8c0.4,0,0.7,0.1,1,0.4
		c0.3,0.2,0.4,0.5,0.4,0.9c0,0.4-0.1,0.7-0.4,0.9c-0.3,0.3-0.6,0.4-1,0.4s-0.8-0.1-1-0.4c-0.3-0.2-0.4-0.5-0.4-0.9
		c0-0.3,0.2-0.7,0.4-0.9C478.9,228.9,479.3,228.8,479.7,228.8"/>
	<path class="st1" d="M483.2,237.1c0-1.4,0.4-2.6,1.4-3.5c0.9-0.9,2.2-1.3,3.8-1.3c1.6,0,2.9,0.4,3.8,1.3c0.9,0.9,1.4,2,1.4,3.5
		c0,1.5-0.5,2.7-1.4,3.6c-0.9,0.9-2.2,1.3-3.8,1.3c-1.6,0-2.9-0.4-3.8-1.3C483.6,239.8,483.2,238.6,483.2,237.1 M485.8,237.1
		c0,2.1,0.9,3.1,2.6,3.1c0.8,0,1.4-0.3,1.9-0.8c0.5-0.5,0.7-1.3,0.7-2.3c0-2-0.8-3-2.6-3c-0.8,0-1.4,0.3-1.9,0.8
		C486,235.4,485.8,236.2,485.8,237.1"/>
	<path class="st1" d="M502.6,241.8v-5.4c0-0.8-0.2-1.4-0.5-1.8c-0.4-0.4-0.9-0.6-1.7-0.6c-0.4,0-0.8,0.1-1.2,0.3
		c-0.4,0.2-0.8,0.4-1,0.7v6.8h-2.5v-9.4h1.8l0.5,0.9c0.7-0.7,1.7-1,3-1c1.3,0,2.3,0.3,3.1,1c0.7,0.7,1.1,1.6,1.1,2.8v5.7
		L502.6,241.8L502.6,241.8z"/>
	<path class="st1" d="M507.2,241.2l0.9-1.7c0.8,0.5,1.6,0.8,2.6,0.8c1,0,1.5-0.3,1.5-0.9c0-0.4-0.1-0.7-0.4-0.9
		c-0.3-0.2-0.9-0.5-1.7-0.8c-1.9-0.7-2.8-1.6-2.8-2.8c0-0.8,0.4-1.4,1.1-1.9c0.7-0.4,1.6-0.7,2.8-0.7c1.1,0,2.2,0.2,3.2,0.7
		l-0.7,1.7c-0.6-0.4-1.3-0.6-2.3-0.6c-0.9,0-1.3,0.3-1.3,0.9c0,0.2,0.1,0.4,0.4,0.7c0.3,0.2,0.9,0.5,1.9,0.8c1,0.3,1.6,0.7,2.1,1.2
		c0.4,0.5,0.6,1,0.6,1.7c0,0.9-0.4,1.5-1.1,2c-0.8,0.5-1.8,0.7-3,0.7c-0.7,0-1.3,0-1.8-0.1C508.4,241.8,507.9,241.6,507.2,241.2"/>
	<rect x="21.5" y="229" class="st1" width="2.6" height="12.9"/>
	<path class="st1" d="M34.1,241.8v-5.4c0-0.8-0.2-1.4-0.5-1.8c-0.4-0.4-0.9-0.6-1.7-0.6c-0.4,0-0.8,0.1-1.2,0.3
		c-0.4,0.2-0.7,0.4-1,0.7v6.8h-2.5v-9.4h1.8l0.4,0.9c0.7-0.7,1.7-1,3-1c1.3,0,2.3,0.3,3.1,1c0.7,0.7,1.1,1.6,1.1,2.8v5.7L34.1,241.8
		L34.1,241.8z"/>
	<path class="st1" d="M38.6,241.2l0.9-1.7c0.8,0.5,1.6,0.8,2.6,0.8c1,0,1.5-0.3,1.5-0.9c0-0.4-0.2-0.7-0.5-0.9
		c-0.3-0.2-0.9-0.5-1.7-0.8c-1.9-0.7-2.8-1.6-2.8-2.8c0-0.8,0.3-1.4,1.1-1.9c0.7-0.4,1.6-0.7,2.8-0.7c1.1,0,2.2,0.2,3.2,0.7
		l-0.7,1.7c-0.5-0.4-1.3-0.6-2.3-0.6c-0.9,0-1.3,0.3-1.3,0.9c0,0.2,0.1,0.4,0.4,0.7c0.3,0.2,0.9,0.5,1.9,0.8c0.9,0.3,1.6,0.7,2,1.2
		c0.4,0.5,0.6,1,0.6,1.7c0,0.9-0.4,1.5-1.1,2c-0.8,0.5-1.8,0.7-3.1,0.7c-0.7,0-1.3,0-1.7-0.1C39.9,241.8,39.3,241.6,38.6,241.2"/>
	<path class="st1" d="M48.7,234.2h-1.3v-1.8h1.3v-1.9l2.5-0.8v2.7h3v1.8h-3v4.1c0,0.7,0.1,1.1,0.4,1.4c0.2,0.3,0.7,0.4,1.3,0.4
		c0.6,0,1.2-0.1,1.7-0.4v2c-0.6,0.2-1.4,0.3-2.5,0.3c-1.1,0-1.9-0.3-2.5-0.8c-0.6-0.5-0.9-1.3-0.9-2.3
		C48.7,239,48.7,234.2,48.7,234.2z"/>
	<path class="st1" d="M57.2,241.8v-7.6h-1.4v-1.8h4v9.4L57.2,241.8L57.2,241.8z M58.5,228.8c0.4,0,0.8,0.1,1.1,0.4
		c0.3,0.2,0.4,0.5,0.4,0.9c0,0.4-0.2,0.7-0.4,0.9c-0.3,0.3-0.6,0.4-1.1,0.4c-0.4,0-0.7-0.1-1-0.4c-0.3-0.2-0.4-0.5-0.4-0.9
		c0-0.3,0.2-0.7,0.4-0.9C57.7,228.9,58.1,228.8,58.5,228.8"/>
	<path class="st1" d="M63.1,234.2h-1.3v-1.8h1.3v-1.9l2.6-0.8v2.7h3v1.8h-3v4.1c0,0.7,0.1,1.1,0.4,1.4c0.2,0.3,0.6,0.4,1.3,0.4
		c0.6,0,1.2-0.1,1.7-0.4v2c-0.6,0.2-1.4,0.3-2.5,0.3c-1.1,0-1.9-0.3-2.5-0.8c-0.6-0.5-0.9-1.3-0.9-2.3L63.1,234.2L63.1,234.2z"/>
	<path class="st1" d="M80.4,241.8v-9.4h-2.5v6.5c-0.2,0.3-0.5,0.6-1,0.9c-0.5,0.3-1,0.4-1.6,0.4c-1.2,0-1.9-0.6-1.9-1.8v-5.9h-2.5
		v6.1c0,2.3,1.3,3.5,3.8,3.5c0.5,0,1.1-0.1,1.7-0.3c0.6-0.2,1.1-0.4,1.5-0.7v0.8H80.4z"/>
	<path class="st1" d="M83.5,239c0,1,0.3,1.7,0.9,2.3c0.6,0.5,1.4,0.8,2.5,0.8c1.1,0,1.9-0.1,2.5-0.3v-2c-0.5,0.3-1.1,0.4-1.7,0.4
		c-0.6,0-1-0.1-1.3-0.4c-0.2-0.3-0.4-0.8-0.4-1.4v-4.1h3v-1.8h-3v-2.7l-2.5,0.8v1.9h-1.3v1.8h1.3L83.5,239L83.5,239z"/>
	<polygon class="st1" points="107.5,242 100.3,233.9 100.3,241.8 97.7,241.8 97.7,229 99,229 106,236.8 106,229 108.6,229 
		108.6,242 	"/>
	<path class="st1" d="M117.5,240.9c-0.2,0.3-0.6,0.6-1.2,0.8c-0.6,0.2-1.2,0.3-1.8,0.3c-1.2,0-2.1-0.3-2.8-0.7c-0.7-0.5-1-1.2-1-2.2
		c0-1.1,0.5-1.9,1.4-2.5c0.9-0.6,2.3-0.9,4-0.9c0.3,0,0.6,0,1,0.1c0-1.1-0.8-1.7-2.4-1.7c-0.9,0-1.7,0.1-2.4,0.4l-0.5-1.7
		c0.9-0.3,1.9-0.5,3.1-0.5c1.6,0,2.9,0.3,3.6,1c0.8,0.6,1.1,1.9,1.1,3.7v2c0,1.2,0.3,2.1,0.9,2.3c-0.2,0.3-0.5,0.5-0.7,0.6
		c-0.3,0.1-0.6,0.1-0.9,0.1c-0.4,0-0.7-0.1-1-0.3C117.8,241.4,117.6,241.2,117.5,240.9 M117.2,237.4c-0.4-0.1-0.8-0.1-1-0.1
		c-2,0-3,0.6-3,1.7c0,0.8,0.6,1.3,1.7,1.3c1.5,0,2.3-0.7,2.3-2V237.4z"/>
	<path class="st1" d="M122.9,234.2h-1.3v-1.8h1.3v-1.9l2.5-0.8v2.7h3v1.8h-3v4.1c0,0.7,0.1,1.1,0.4,1.4c0.2,0.3,0.7,0.4,1.3,0.4
		c0.6,0,1.2-0.1,1.7-0.4v2c-0.6,0.2-1.4,0.3-2.5,0.3c-1.1,0-1.9-0.3-2.5-0.8c-0.6-0.5-0.9-1.3-0.9-2.3V234.2z"/>
	<path class="st1" d="M131.4,241.8v-7.6H130v-1.8h3.9v9.4L131.4,241.8L131.4,241.8z M132.7,228.8c0.4,0,0.8,0.1,1,0.4
		c0.3,0.2,0.4,0.5,0.4,0.9c0,0.4-0.1,0.7-0.4,0.9c-0.3,0.3-0.6,0.4-1,0.4c-0.4,0-0.7-0.1-1-0.4c-0.3-0.2-0.4-0.5-0.4-0.9
		c0-0.3,0.2-0.7,0.4-0.9C131.9,228.9,132.3,228.8,132.7,228.8"/>
	<path class="st1" d="M136.2,237.1c0-1.4,0.5-2.6,1.4-3.5c0.9-0.9,2.2-1.3,3.8-1.3c1.6,0,2.9,0.4,3.8,1.3c0.9,0.9,1.4,2,1.4,3.5
		c0,1.5-0.5,2.7-1.4,3.6c-0.9,0.9-2.2,1.3-3.8,1.3c-1.7,0-2.9-0.4-3.8-1.3C136.6,239.8,136.2,238.6,136.2,237.1 M138.8,237.1
		c0,2.1,0.9,3.1,2.6,3.1c0.8,0,1.4-0.3,1.9-0.8c0.5-0.5,0.7-1.3,0.7-2.3c0-2-0.9-3-2.6-3c-0.8,0-1.4,0.3-1.9,0.8
		C139,235.4,138.8,236.2,138.8,237.1"/>
	<path class="st1" d="M155.6,241.8v-5.4c0-0.8-0.2-1.4-0.5-1.8c-0.4-0.4-0.9-0.6-1.7-0.6c-0.4,0-0.8,0.1-1.2,0.3
		c-0.4,0.2-0.7,0.4-1,0.7v6.8h-2.6v-9.4h1.8l0.5,0.9c0.7-0.7,1.7-1,3-1c1.3,0,2.3,0.3,3.1,1c0.7,0.7,1.1,1.6,1.1,2.8v5.7
		L155.6,241.8L155.6,241.8z"/>
	<path class="st1" d="M166.9,240.9c-0.2,0.3-0.6,0.6-1.2,0.8c-0.6,0.2-1.2,0.3-1.8,0.3c-1.2,0-2.1-0.3-2.8-0.7c-0.7-0.5-1-1.2-1-2.2
		c0-1.1,0.5-1.9,1.4-2.5c0.9-0.6,2.3-0.9,4-0.9c0.3,0,0.6,0,1,0.1c0-1.1-0.8-1.7-2.4-1.7c-1,0-1.7,0.1-2.4,0.4l-0.5-1.7
		c0.9-0.3,1.9-0.5,3.1-0.5c1.6,0,2.9,0.3,3.6,1s1.2,1.9,1.2,3.7v2c0,1.2,0.3,2.1,0.9,2.3c-0.2,0.3-0.4,0.5-0.7,0.6
		c-0.3,0.1-0.6,0.1-0.9,0.1c-0.4,0-0.7-0.1-1-0.3C167.2,241.4,167,241.2,166.9,240.9 M166.6,237.4c-0.4-0.1-0.7-0.1-1-0.1
		c-2,0-3,0.6-3,1.7c0,0.8,0.6,1.3,1.7,1.3c1.5,0,2.3-0.7,2.3-2L166.6,237.4L166.6,237.4z"/>
	<path class="st1" d="M172.3,229l2.6-0.5V239c0,1.1,0.4,1.8,1.2,2.1c-0.4,0.7-1.1,1-2,1c-1.1,0-1.7-0.7-1.7-2.1V229z"/>
	<path class="st1" d="M191.2,241.8v-0.6c-0.2,0.2-0.6,0.3-1.1,0.5c-0.5,0.2-1,0.2-1.5,0.2c-1.5,0-2.7-0.4-3.6-1.2
		c-0.8-0.8-1.3-2-1.3-3.5c0-1.5,0.5-2.7,1.5-3.6c1-0.9,2.2-1.4,3.7-1.4c0.8,0,1.6,0.1,2.2,0.4V229l2.6-0.5v13.4L191.2,241.8
		L191.2,241.8z M191.2,234.7c-0.5-0.4-1.1-0.6-1.7-0.6c-1,0-1.8,0.3-2.3,0.8c-0.5,0.5-0.8,1.3-0.8,2.3c0,2,1.1,2.9,3.2,2.9
		c0.2,0,0.5-0.1,0.9-0.2c0.3-0.1,0.6-0.3,0.7-0.4L191.2,234.7L191.2,234.7z"/>
	<path class="st1" d="M206,237.9h-7.8c0.1,0.7,0.4,1.3,0.9,1.7c0.5,0.4,1.3,0.6,2.2,0.6c1.1,0,2-0.3,2.6-0.8l1,1.7
		c-0.9,0.6-2.2,0.9-4,0.9c-1.7,0-3-0.4-3.9-1.3c-1-0.8-1.4-2-1.4-3.5c0-1.5,0.5-2.7,1.6-3.6c1.1-0.9,2.3-1.4,3.8-1.4
		c1.6,0,2.8,0.4,3.8,1.2c1,0.8,1.4,1.8,1.4,3.1C206.2,236.9,206.1,237.3,206,237.9 M198.3,236.2h5.3c-0.2-1.4-1-2.1-2.6-2.1
		C199.6,234.1,198.7,234.8,198.3,236.2"/>
	<path class="st1" d="M209.2,241.9c0.4,0.1,1,0.1,1.7,0.1c1.3,0,2.3-0.3,3-0.7c0.7-0.5,1.1-1.2,1.1-2c0-0.7-0.2-1.2-0.6-1.7
		c-0.4-0.5-1.1-0.8-2.1-1.2c-1-0.3-1.6-0.6-1.9-0.8c-0.3-0.2-0.4-0.4-0.4-0.7c0-0.6,0.4-0.9,1.3-0.9c1,0,1.8,0.2,2.3,0.6l0.7-1.7
		c-1-0.4-2.1-0.7-3.2-0.7c-1.1,0-2,0.2-2.7,0.7c-0.7,0.5-1.1,1.1-1.1,1.9c0,1.2,0.9,2.2,2.8,2.8c0.8,0.3,1.4,0.6,1.7,0.8
		c0.3,0.2,0.5,0.5,0.5,0.9c0,0.6-0.5,0.9-1.5,0.9c-1,0-1.8-0.3-2.6-0.8l-0.9,1.7C208.2,241.6,208.8,241.8,209.2,241.9"/>
	<path class="st1" d="M226.2,237.1v4.7h-2.6V229c1.8-0.1,2.8-0.1,3.1-0.1c2.3,0,4.1,0.3,5.1,0.9c1.1,0.6,1.6,1.6,1.6,2.9
		c0,2.9-2,4.4-6,4.4C227.1,237.2,226.7,237.1,226.2,237.1 M226.2,231v4.1c0.5,0.1,0.8,0.1,1.1,0.1c1.2,0,2.1-0.2,2.6-0.5
		c0.6-0.3,0.9-0.9,0.9-1.7c0-1.4-1.3-2-3.7-2C226.7,230.9,226.4,231,226.2,231"/>
	<path class="st1" d="M233.9,237.1c0-1.4,0.5-2.6,1.4-3.5c1-0.9,2.2-1.3,3.8-1.3c1.7,0,2.9,0.4,3.8,1.3c0.9,0.9,1.4,2,1.4,3.5
		c0,1.5-0.4,2.7-1.4,3.6c-0.9,0.9-2.2,1.3-3.8,1.3c-1.7,0-2.9-0.4-3.8-1.3C234.3,239.8,233.9,238.6,233.9,237.1 M236.5,237.1
		c0,2.1,0.9,3.1,2.6,3.1c0.8,0,1.4-0.3,1.9-0.8c0.5-0.5,0.7-1.3,0.7-2.3c0-2-0.9-3-2.6-3c-0.8,0-1.4,0.3-1.9,0.8
		C236.7,235.4,236.5,236.2,236.5,237.1"/>
	<path class="st1" d="M247.3,241.9c0.5,0.1,1,0.1,1.8,0.1c1.3,0,2.3-0.3,3-0.7c0.7-0.5,1.1-1.2,1.1-2c0-0.7-0.2-1.2-0.6-1.7
		c-0.4-0.5-1.1-0.8-2.1-1.2c-1-0.3-1.6-0.6-1.9-0.8c-0.3-0.2-0.5-0.4-0.5-0.7c0-0.6,0.5-0.9,1.3-0.9c1,0,1.8,0.2,2.3,0.6l0.7-1.7
		c-1-0.4-2.1-0.7-3.2-0.7c-1.1,0-2,0.2-2.7,0.7c-0.7,0.5-1.1,1.1-1.1,1.9c0,1.2,0.9,2.2,2.8,2.8c0.8,0.3,1.4,0.6,1.7,0.8
		c0.3,0.2,0.5,0.5,0.5,0.9c0,0.6-0.5,0.9-1.5,0.9c-1,0-1.8-0.3-2.6-0.8l-0.9,1.7C246.3,241.6,246.9,241.8,247.3,241.9"/>
	<path class="st1" d="M255.6,234.2h-1.3v-1.8h1.3v-1.9l2.5-0.8v2.7h3v1.8h-3v4.1c0,0.7,0.1,1.1,0.4,1.4c0.2,0.3,0.6,0.4,1.3,0.4
		c0.6,0,1.2-0.1,1.7-0.4v2c-0.6,0.2-1.4,0.3-2.5,0.3c-1.1,0-1.9-0.3-2.5-0.8c-0.6-0.5-0.9-1.3-0.9-2.3L255.6,234.2L255.6,234.2z"/>
	<path class="st1" d="M273.1,237.9h-7.7c0,0.7,0.3,1.3,0.9,1.7c0.6,0.4,1.3,0.6,2.2,0.6c1.1,0,2-0.3,2.6-0.8l1,1.7
		c-0.9,0.6-2.2,0.9-4,0.9c-1.6,0-3-0.4-3.9-1.3c-0.9-0.8-1.4-2-1.4-3.5c0-1.5,0.5-2.7,1.6-3.6c1.1-0.9,2.3-1.4,3.8-1.4
		c1.6,0,2.8,0.4,3.8,1.2c1,0.8,1.4,1.8,1.4,3.1C273.3,236.9,273.3,237.3,273.1,237.9 M265.5,236.2h5.3c-0.2-1.4-1.1-2.1-2.6-2.1
		C266.7,234.1,265.8,234.8,265.5,236.2"/>
	<path class="st1" d="M276.4,241.9c0.4,0.1,1,0.1,1.7,0.1c1.3,0,2.3-0.3,3.1-0.7c0.7-0.5,1.1-1.2,1.1-2c0-0.7-0.2-1.2-0.6-1.7
		c-0.4-0.5-1.1-0.8-2.1-1.2c-0.9-0.3-1.6-0.6-1.8-0.8c-0.3-0.2-0.5-0.4-0.5-0.7c0-0.6,0.5-0.9,1.3-0.9c1,0,1.8,0.2,2.3,0.6l0.7-1.7
		c-1-0.4-2.1-0.7-3.2-0.7c-1.1,0-2,0.2-2.8,0.7c-0.7,0.5-1.1,1.1-1.1,1.9c0,1.2,0.9,2.2,2.8,2.8c0.8,0.3,1.4,0.6,1.7,0.8
		c0.3,0.2,0.4,0.5,0.4,0.9c0,0.6-0.5,0.9-1.5,0.9c-0.9,0-1.8-0.3-2.5-0.8l-0.9,1.7C275.4,241.6,275.9,241.8,276.4,241.9"/>
	<path class="st1" d="M300.2,237.9h-7.7c0,0.7,0.3,1.3,0.9,1.7c0.5,0.4,1.3,0.6,2.2,0.6c1.2,0,2-0.3,2.6-0.8l1,1.7
		c-0.9,0.6-2.2,0.9-4,0.9c-1.7,0-3-0.4-3.9-1.3c-0.9-0.8-1.4-2-1.4-3.5c0-1.5,0.5-2.7,1.6-3.6c1-0.9,2.3-1.4,3.8-1.4
		c1.6,0,2.8,0.4,3.8,1.2c0.9,0.8,1.4,1.8,1.4,3.1C300.4,236.9,300.4,237.3,300.2,237.9 M292.6,236.2h5.3c-0.2-1.4-1-2.1-2.6-2.1
		C293.8,234.1,292.9,234.8,292.6,236.2"/>
	<path class="st1" d="M302.9,239c0,1,0.3,1.7,0.9,2.3c0.6,0.5,1.4,0.8,2.5,0.8c1.1,0,1.9-0.1,2.5-0.3v-2c-0.5,0.3-1.1,0.4-1.7,0.4
		c-0.6,0-1-0.1-1.3-0.4c-0.3-0.3-0.4-0.8-0.4-1.4v-4.1h3v-1.8h-3v-2.7l-2.5,0.8v1.9h-1.3v1.8h1.3L302.9,239L302.9,239z"/>
	<polygon class="st1" points="327.7,231 327.7,229 315.4,229 315.4,231 320.1,231 320.1,241.8 322.8,241.8 322.8,231 	"/>
	<path class="st1" d="M339.1,236.6c0-1.3-0.5-2.3-1.4-3.1c-1-0.8-2.2-1.2-3.8-1.2c-1.5,0-2.8,0.5-3.8,1.4c-1,0.9-1.6,2.1-1.6,3.6
		c0,1.5,0.5,2.7,1.5,3.5c1,0.8,2.3,1.3,3.9,1.3c1.8,0,3.1-0.3,4-0.9l-1-1.7c-0.6,0.5-1.5,0.8-2.6,0.8c-0.9,0-1.7-0.2-2.2-0.6
		c-0.5-0.4-0.8-1-0.9-1.7h7.8C339,237.3,339.1,236.9,339.1,236.6 M334,234.1c1.6,0,2.4,0.7,2.6,2.1h-5.3
		C331.6,234.8,332.5,234.1,334,234.1 M334.5,228.6l-1.7,2.6h1.9l2.3-2.6H334.5z"/>
	<path class="st1" d="M341.6,229l2.5-0.5V239c0,1.1,0.4,1.8,1.2,2.1c-0.4,0.7-1.1,1-2,1c-1.2,0-1.7-0.7-1.7-2.1L341.6,229L341.6,229
		z"/>
	<path class="st1" d="M356.9,237.9h-7.7c0,0.7,0.3,1.3,0.9,1.7c0.5,0.4,1.3,0.6,2.2,0.6c1.1,0,2-0.3,2.6-0.8l1,1.7
		c-0.9,0.6-2.2,0.9-4,0.9c-1.6,0-2.9-0.4-3.9-1.3c-1-0.8-1.5-2-1.5-3.5c0-1.5,0.5-2.7,1.6-3.6c1.1-0.9,2.3-1.4,3.8-1.4
		c1.6,0,2.8,0.4,3.8,1.2c1,0.8,1.4,1.8,1.4,3.1C357.1,236.9,357.1,237.3,356.9,237.9 M349.3,236.2h5.3c-0.2-1.4-1.1-2.1-2.6-2.1
		C350.5,234.1,349.6,234.8,349.3,236.2 M355,228.6l-2.3,2.6h-1.9l1.7-2.6H355z"/>
	<path class="st1" d="M364.4,232.3c-1.8,0-3.3,0.5-4.3,1.3c-1.1,0.9-1.6,2.1-1.6,3.6s0.5,2.7,1.4,3.5c1,0.8,2.3,1.3,4,1.3
		c0.7,0,1.4,0,1.9-0.1c0.5-0.1,1.2-0.4,1.9-0.8l-0.9-1.7c-0.7,0.5-1.6,0.8-2.5,0.8c-2.2,0-3.2-1-3.2-3c0-1,0.3-1.7,0.8-2.3
		c0.6-0.5,1.3-0.8,2.3-0.8c1,0,1.8,0.2,2.4,0.7l1.1-1.6C366.7,232.6,365.6,232.3,364.4,232.3"/>
	<path class="st1" d="M369.1,237.1c0-1.4,0.5-2.6,1.4-3.5c1-0.9,2.2-1.3,3.8-1.3c1.7,0,2.9,0.4,3.8,1.3c0.9,0.9,1.4,2,1.4,3.5
		c0,1.5-0.5,2.7-1.4,3.6c-0.9,0.9-2.2,1.3-3.8,1.3c-1.6,0-2.9-0.4-3.8-1.3C369.5,239.8,369.1,238.6,369.1,237.1 M371.7,237.1
		c0,2.1,0.9,3.1,2.6,3.1c0.8,0,1.4-0.3,1.9-0.8c0.5-0.5,0.7-1.3,0.7-2.3c0-2-0.9-3-2.6-3c-0.8,0-1.4,0.3-1.9,0.8
		C371.9,235.4,371.7,236.2,371.7,237.1"/>
	<path class="st1" d="M394.1,241.8V236c0-1.2-0.6-1.9-1.9-1.9c-0.4,0-0.8,0.1-1.1,0.3c-0.4,0.2-0.6,0.4-0.7,0.7v6.8h-2.5v-6.2
		c0-0.5-0.2-0.8-0.5-1.1c-0.3-0.3-0.8-0.4-1.4-0.4c-0.3,0-0.7,0.1-1,0.3c-0.4,0.2-0.6,0.4-0.8,0.7v6.7h-2.5v-9.4h1.8l0.5,0.8
		c0.7-0.6,1.6-1,2.7-1c1.4,0,2.5,0.3,3.2,1c0.3-0.3,0.8-0.6,1.3-0.7c0.6-0.2,1.1-0.3,1.7-0.3c1.2,0,2.2,0.3,2.8,0.9
		c0.7,0.6,1,1.4,1,2.5v6.2L394.1,241.8L394.1,241.8z"/>
	<path class="st1" d="M411.9,241.8V236c0-1.2-0.6-1.9-1.9-1.9c-0.4,0-0.7,0.1-1.1,0.3c-0.4,0.2-0.6,0.4-0.7,0.7v6.8h-2.5v-6.2
		c0-0.5-0.2-0.8-0.5-1.1c-0.3-0.3-0.8-0.4-1.4-0.4c-0.3,0-0.7,0.1-1,0.3c-0.4,0.2-0.7,0.4-0.8,0.7v6.7h-2.5v-9.4h1.8l0.5,0.8
		c0.7-0.6,1.6-1,2.7-1c1.5,0,2.5,0.3,3.3,1c0.3-0.3,0.7-0.6,1.3-0.7c0.6-0.2,1.1-0.3,1.7-0.3c1.2,0,2.1,0.3,2.8,0.9
		c0.7,0.6,1,1.4,1,2.5v6.2L411.9,241.8L411.9,241.8z"/>
	<path class="st1" d="M424.1,241.8V241c-0.4,0.3-0.8,0.5-1.5,0.7c-0.6,0.2-1.2,0.3-1.7,0.3c-2.5,0-3.8-1.1-3.8-3.5v-6.1h2.5v5.9
		c0,1.2,0.6,1.8,1.9,1.8c0.6,0,1.1-0.1,1.6-0.4c0.5-0.3,0.8-0.5,1-0.9v-6.5h2.6v9.4H424.1z"/>
	<path class="st1" d="M438.9,241.8v-5.7c0-1.2-0.4-2.1-1.1-2.8c-0.7-0.7-1.8-1-3-1c-1.3,0-2.4,0.3-3,1l-0.5-0.9h-1.8v9.4h2.6v-6.8
		c0.2-0.3,0.6-0.5,1-0.7c0.4-0.2,0.8-0.3,1.2-0.3c0.8,0,1.4,0.2,1.7,0.6c0.3,0.4,0.5,0.9,0.5,1.8v5.4L438.9,241.8L438.9,241.8z"/>
	<path class="st1" d="M442.3,241.8v-7.6h-1.4v-1.8h4v9.4L442.3,241.8L442.3,241.8z M443.6,228.8c0.4,0,0.8,0.1,1.1,0.4
		c0.3,0.2,0.4,0.5,0.4,0.9c0,0.4-0.1,0.7-0.4,0.9c-0.3,0.3-0.6,0.4-1.1,0.4c-0.4,0-0.7-0.1-1-0.4c-0.3-0.2-0.4-0.5-0.4-0.9
		c0-0.3,0.1-0.7,0.4-0.9C442.9,228.9,443.2,228.8,443.6,228.8"/>
	<path class="st1" d="M456.3,233.2l-1.1,1.6c-0.6-0.5-1.4-0.7-2.4-0.7c-1,0-1.7,0.3-2.3,0.8c-0.6,0.6-0.8,1.3-0.8,2.3
		c0,2,1.1,3,3.2,3c0.9,0,1.8-0.3,2.5-0.8l0.9,1.7c-0.7,0.4-1.4,0.7-1.9,0.8c-0.5,0.1-1.2,0.1-1.9,0.1c-1.7,0-3-0.4-4-1.3
		c-1-0.9-1.4-2-1.4-3.5s0.5-2.7,1.6-3.6c1.1-0.9,2.5-1.3,4.3-1.3C454.3,232.3,455.4,232.6,456.3,233.2"/>
	<path class="st1" d="M464.5,240.9c-0.2,0.3-0.6,0.6-1.2,0.8c-0.6,0.2-1.2,0.3-1.8,0.3c-1.2,0-2.1-0.3-2.8-0.7c-0.7-0.5-1-1.2-1-2.2
		c0-1.1,0.5-1.9,1.4-2.5c0.9-0.6,2.3-0.9,4-0.9c0.3,0,0.7,0,1,0.1c0-1.1-0.8-1.7-2.4-1.7c-0.9,0-1.7,0.1-2.4,0.4l-0.5-1.7
		c0.9-0.3,1.9-0.5,3.1-0.5c1.7,0,2.9,0.3,3.6,1c0.8,0.6,1.1,1.9,1.1,3.7v2c0,1.2,0.3,2.1,0.9,2.3c-0.2,0.3-0.5,0.5-0.7,0.6
		c-0.3,0.1-0.6,0.1-0.9,0.1c-0.3,0-0.7-0.1-1-0.3C464.8,241.4,464.6,241.2,464.5,240.9 M464.2,237.4c-0.4-0.1-0.8-0.1-1-0.1
		c-2,0-3,0.6-3,1.7c0,0.8,0.6,1.3,1.7,1.3c1.5,0,2.3-0.7,2.3-2V237.4z"/>
	<path class="st1" d="M469.9,234.2h-1.3v-1.8h1.3v-1.9l2.5-0.8v2.7h3v1.8h-3v4.1c0,0.7,0.1,1.1,0.4,1.4c0.3,0.3,0.7,0.4,1.3,0.4
		c0.6,0,1.2-0.1,1.7-0.4v2c-0.6,0.2-1.4,0.3-2.5,0.3c-1.1,0-1.9-0.3-2.5-0.8c-0.6-0.5-0.9-1.3-0.9-2.3V234.2z"/>
	<path class="st1" d="M478.4,241.8v-7.6H477v-1.8h4v9.4L478.4,241.8L478.4,241.8z M479.7,228.8c0.4,0,0.7,0.1,1,0.4
		c0.3,0.2,0.4,0.5,0.4,0.9c0,0.4-0.1,0.7-0.4,0.9c-0.3,0.3-0.6,0.4-1,0.4s-0.8-0.1-1-0.4c-0.3-0.2-0.4-0.5-0.4-0.9
		c0-0.3,0.2-0.7,0.4-0.9C478.9,228.9,479.3,228.8,479.7,228.8"/>
	<path class="st1" d="M483.2,237.1c0-1.4,0.4-2.6,1.4-3.5c0.9-0.9,2.2-1.3,3.8-1.3c1.6,0,2.9,0.4,3.8,1.3c0.9,0.9,1.4,2,1.4,3.5
		c0,1.5-0.5,2.7-1.4,3.6c-0.9,0.9-2.2,1.3-3.8,1.3c-1.6,0-2.9-0.4-3.8-1.3C483.6,239.8,483.2,238.6,483.2,237.1 M485.8,237.1
		c0,2.1,0.9,3.1,2.6,3.1c0.8,0,1.4-0.3,1.9-0.8c0.5-0.5,0.7-1.3,0.7-2.3c0-2-0.8-3-2.6-3c-0.8,0-1.4,0.3-1.9,0.8
		C486,235.4,485.8,236.2,485.8,237.1"/>
	<path class="st1" d="M502.6,241.8v-5.4c0-0.8-0.2-1.4-0.5-1.8c-0.4-0.4-0.9-0.6-1.7-0.6c-0.4,0-0.8,0.1-1.2,0.3
		c-0.4,0.2-0.8,0.4-1,0.7v6.8h-2.5v-9.4h1.8l0.5,0.9c0.7-0.7,1.7-1,3-1c1.3,0,2.3,0.3,3.1,1c0.7,0.7,1.1,1.6,1.1,2.8v5.7
		L502.6,241.8L502.6,241.8z"/>
	<path class="st1" d="M507.2,241.2l0.9-1.7c0.8,0.5,1.6,0.8,2.6,0.8c1,0,1.5-0.3,1.5-0.9c0-0.4-0.1-0.7-0.4-0.9
		c-0.3-0.2-0.9-0.5-1.7-0.8c-1.9-0.7-2.8-1.6-2.8-2.8c0-0.8,0.4-1.4,1.1-1.9c0.7-0.4,1.6-0.7,2.8-0.7c1.1,0,2.2,0.2,3.2,0.7
		l-0.7,1.7c-0.6-0.4-1.3-0.6-2.3-0.6c-0.9,0-1.3,0.3-1.3,0.9c0,0.2,0.1,0.4,0.4,0.7c0.3,0.2,0.9,0.5,1.9,0.8c1,0.3,1.6,0.7,2.1,1.2
		c0.4,0.5,0.6,1,0.6,1.7c0,0.9-0.4,1.5-1.1,2c-0.8,0.5-1.8,0.7-3,0.7c-0.7,0-1.3,0-1.8-0.1C508.4,241.8,507.9,241.6,507.2,241.2"/>
</g>
<g>
	<path class="st2" d="M36.9,168.7c0,0.3-0.2,0.7-0.5,1c-0.3,0.3-0.7,0.5-1,0.5H22.5c-1,0-1.5-0.8-1.5-2.3c0-1.2,0.2-2,0.6-2.4
		l2.4-1.5v3.1h9.8c0-1.4,0.2-2.4,0.5-3c0.3-0.6,1.2-1.2,2.6-1.8L36.9,168.7L36.9,168.7z M28.2,158.9c0,0.9-0.5,1.4-1.5,1.4
		c-0.4,0-0.8-0.1-1.1-0.4c-0.3-0.3-0.5-0.6-0.5-1c0-0.9,0.5-1.3,1.6-1.3C27.7,157.6,28.2,158,28.2,158.9 M33.3,158.9
		c0,0.9-0.5,1.4-1.5,1.4c-0.4,0-0.8-0.1-1.1-0.4c-0.3-0.3-0.5-0.6-0.5-1c0-0.9,0.5-1.3,1.6-1.3C32.8,157.6,33.3,158,33.3,158.9"/>
	<path class="st2" d="M52.5,170.2H49c-0.3,1.7-0.7,2.9-1.2,3.6c-0.8,1.1-2,1.7-3.7,1.7c-1.1,0-2.2-0.5-3.3-1.3
		c-1-0.9-1.6-1.8-1.6-2.8v-4.3h3c0,0.2,0,0.6-0.1,1c0,0.4,0,0.8,0,1c0,2.2,0.6,3.3,1.9,3.3c0.4,0,0.8-0.2,1.2-0.5
		c0.4-0.4,0.6-0.7,0.6-1.1v-15c0-0.8,0.3-1.4,1-1.8c0.5-0.3,1.1-0.7,2-1.3v14.4h3.6L52.5,170.2L52.5,170.2z M42.3,165.4h-3v-12.8
		l1.7,1.3c0.9,0.7,1.3,1.2,1.3,1.4L42.3,165.4L42.3,165.4z"/>
	<rect x="51.8" y="167.1" class="st2" width="19.2" height="3.1"/>
	<path class="st2" d="M88.2,169c0,0.4-0.4,0.8-1.2,1.2H70.9v-6.8l3-1.8v1.9c0.2-0.3,0.6-0.6,1.2-0.9c0.6-0.3,1.1-0.4,1.5-0.4h9.3
		c0.5,0,1,0.2,1.6,0.4c0.5,0.3,0.8,0.7,0.8,1.1L88.2,169L88.2,169z M85.2,167.1v-1.1c0-0.3-0.2-0.6-0.6-0.8
		c-0.4-0.2-0.8-0.3-1.2-0.3h-9.5v2.2L85.2,167.1L85.2,167.1z"/>
	<path class="st2" d="M93.5,170.2h-3.1v-14.4c0-0.7,0.3-1.3,1-1.9c0.2-0.1,0.9-0.5,2.1-1.2L93.5,170.2L93.5,170.2z"/>
	<path class="st2" d="M108.8,167.1v3.1h-3.9c0,1.8-0.2,3.1-0.6,3.8c-0.6,1.1-1.8,1.6-3.7,1.6c-1.2,0-2.2-0.3-3.1-0.9
		c-1-0.6-1.5-1.4-1.3-2.5h5.6v-2.1h-5.6v-3.1c0-1.8,0.4-3.1,1.3-3.9c0.6-0.6,1.7-1.1,3.3-1.5c1.9-0.5,3.3-0.9,4-1.3l0,6.7
		L108.8,167.1L108.8,167.1z M101.9,164.4c-0.3,0-0.6,0.1-1.1,0.2c-0.3,0.1-0.6,0.4-1,0.8c-0.3,0.4-0.5,0.8-0.5,1.1v0.5h2.6
		L101.9,164.4L101.9,164.4z"/>
	<path class="st2" d="M143,170.6c0,0.9-0.4,1.8-1.4,2.4c-0.9,0.7-1.9,1-3,1c-1.3,0-2.4-0.4-3-1.1c-0.6-0.6-1-1.5-1.3-2.8h-26.4V167
		H128c0.1-0.4,0.1-0.6,0.1-0.9c0-1.4,0.6-2.4,1.7-3.1c0.6-0.3,1.8-0.7,3.7-1.1c1.7-0.4,3-0.8,3.6-1.3v9.4c0,0.4,0.1,0.7,0.4,0.9
		c0.3,0.2,0.6,0.4,1,0.4c0.3,0,0.6-0.1,0.9-0.3c0.3-0.2,0.5-0.4,0.5-0.7v-14.9c0-0.7,0.4-1.2,1.1-1.7l1.9-1.2V170.6z M134.2,167
		v-2.3c-0.3-0.1-0.6-0.1-0.8-0.1c-0.5,0-1,0.2-1.6,0.6c-0.6,0.4-0.9,0.8-0.9,1.2v0.7H134.2z"/>
	<path class="st2" d="M148.3,170.2h-3.1v-14.4c0-0.7,0.3-1.3,1-1.9c0.2-0.1,0.9-0.5,2.1-1.2V170.2z"/>
	<path class="st2" d="M159.3,172.8c0,0.8-0.5,1.5-1.5,2c-0.9,0.5-1.8,0.7-2.7,0.7c-1.2,0-2.2-0.3-3-0.8c-0.9-0.6-1.4-1.4-1.4-2.4
		h5.5v-2h-5.5v-3.8c0-1.5,0.5-2.6,1.5-3.3c0.6-0.5,1.8-0.9,3.4-1.3c1.8-0.5,3-0.9,3.7-1.2L159.3,172.8L159.3,172.8z M156.3,167v-2.5
		h-0.6c-0.5,0-1,0.3-1.5,1c-0.3,0.4-0.5,0.8-0.5,1.2c0,0.1,0,0.2,0.1,0.3L156.3,167L156.3,167z"/>
	<path class="st2" d="M181.5,170.2h-13.9v-3.1h8.8v-1.8c-0.4-0.5-0.8-0.8-1.2-0.8h-5.9v-4c1,0.9,1.7,1.3,2.2,1.3
		c-0.4,0-0.1,0,0.8-0.1c1-0.1,1.6-0.1,1.9-0.1c3.5,0,5.2,0.7,5.2,2.1v3.3h2.1L181.5,170.2L181.5,170.2z"/>
	<path class="st2" d="M205.9,169c0,0.2-0.1,0.5-0.5,0.8c-0.3,0.3-0.6,0.4-0.8,0.4h-23.8v-3.1h22.1c0-1.8,0.1-2.8,0.4-3.2
		c0.9-0.6,1.7-1.1,2.6-1.7L205.9,169L205.9,169z M200.4,173.9c0,0.9-0.5,1.3-1.5,1.3c-1,0-1.5-0.5-1.5-1.3c0-0.4,0.1-0.7,0.4-1
		c0.3-0.3,0.7-0.4,1.1-0.4C199.9,172.6,200.4,173,200.4,173.9 M205.5,173.9c0,0.9-0.5,1.3-1.5,1.3c-1,0-1.5-0.5-1.5-1.3
		c0-0.4,0.1-0.7,0.4-1c0.3-0.3,0.7-0.4,1.1-0.4C205,172.6,205.5,173,205.5,173.9"/>
	<path class="st2" d="M241.6,167.1v3.1h-13.5h-14.6c0,1.4-0.2,2.4-0.6,3.1c-0.5,1-1.5,1.4-2.9,1.4c-1,0-1.9-0.3-2.7-0.9
		c-0.8-0.6-1.2-1.3-1.2-2.2h3.8c0-0.5,0-1.2-0.1-2.1c-0.1-0.9-0.1-1.6-0.1-2.1c0-0.8,0.2-1.4,0.7-1.8c0.3-0.3,1.4-0.8,3.1-1.6v3.1
		h14.8h3.4V166c0-1,0.2-1.7,0.7-2.2c0.1,0,0.8-0.5,2.4-1.5v4.8L241.6,167.1L241.6,167.1z M232.9,174.1c0,0.9-0.5,1.4-1.5,1.4
		c-0.5,0-0.8-0.1-1.1-0.4c-0.3-0.3-0.4-0.6-0.4-1c0-0.9,0.5-1.3,1.5-1.3C232.4,172.8,232.9,173.2,232.9,174.1"/>
	<path class="st2" d="M261.1,170.2H241v-3.1h14.9V155c0-0.4,0.4-0.9,1.2-1.3c0.4-0.2,1-0.6,1.8-1v14.4h2.2V170.2z"/>
	<path class="st2" d="M267.8,168.9c0,0.2-0.1,0.5-0.4,0.8c-0.3,0.3-0.6,0.5-0.8,0.5h-6.3v-3.1h4.5V155c0-0.4,0.4-0.9,1.2-1.3l1.8-1
		V168.9z"/>
	<path class="st2" d="M296.8,167.1v3.1h-5.1v-5.5l-0.8-0.2c-1.9,0-2.8,1.4-2.8,4.2c0,0.3,0,0.8,0,1.5c0,0.7,0.1,1.2,0.1,1.5
		c0,0.9-0.8,1.7-2.3,2.6c-1.4,0.8-2.7,1.2-3.7,1.2c-1.5,0-2.9-0.4-4-1.3c-1.2-0.9-1.9-2-1.9-3.3c0-1.6,0.9-2.9,2.7-4.1h0.3
		c0,0.3,0,0.7-0.1,1.2c0,0.5-0.1,0.9-0.1,1.2c0,1,0.2,1.8,0.7,2.3c0.4,0.5,1.2,0.8,2.4,0.8c1.2,0,2.1-0.3,2.5-1
		c0.4-0.5,0.6-1.4,0.6-2.5v-0.8v-0.8c0-1,0.1-1.7,0.3-2.3c0.5-1.2,1.2-2,2.4-2.5c0.4-0.2,1.5-0.4,3.3-0.7c1.4-0.3,2.5-0.7,3.3-1.3
		v6.7L296.8,167.1L296.8,167.1z"/>
	<path class="st2" d="M324.4,167.1v3.1h-28.5v-3.1h12.7v-0.5c0-0.8,0.3-1.5,0.9-1.9c0.8-0.4,1.5-0.8,2.2-1.1v3.5H324.4z
		 M311.5,158.5c0,0.4-0.1,0.7-0.4,1c-0.3,0.2-0.7,0.4-1.1,0.4c-1,0-1.5-0.5-1.5-1.3c0-0.9,0.5-1.4,1.5-1.4c0.4,0,0.7,0.1,1,0.4
		C311.3,157.9,311.5,158.2,311.5,158.5"/>
	<path class="st2" d="M351.2,169.2l-1.1,0.9h-26.6v-3.1h8.7v-11.6c0-0.7,0.3-1.3,1-1.8c0.7-0.3,1.4-0.7,2.1-1.1v10.6
		c1.1-0.8,1.9-1.2,2.4-1.2h10.9c0.4,0,0.9,0.2,1.6,0.7c0.7,0.5,1,0.8,1,1.1L351.2,169.2L351.2,169.2z M348.2,167.1v-1.3
		c0-0.2-0.2-0.5-0.7-0.7c-0.5-0.2-0.9-0.3-1.2-0.3h-10.9v2.2L348.2,167.1L348.2,167.1z"/>
	<path class="st2" d="M371.2,167.1v3.1H362c0,1.8-0.2,3.1-0.6,3.8c-0.6,1.1-1.8,1.6-3.7,1.6c-1.2,0-2.2-0.3-3.1-0.9
		c-1-0.6-1.5-1.4-1.3-2.5h5.6v-2.1h-5.6v-3.1c0-1.8,0.5-3.1,1.3-3.9c0.6-0.6,1.7-1.1,3.3-1.5c1.9-0.5,3.3-0.9,4-1.3l0,6.7
		L371.2,167.1L371.2,167.1z M359,164.4c-0.2,0-0.6,0.1-1.1,0.2c-0.3,0.1-0.6,0.4-1,0.8c-0.3,0.4-0.5,0.8-0.5,1.1v0.5h2.6L359,164.4
		L359,164.4z"/>
	<path class="st2" d="M383,168.9c0,0.2-0.1,0.5-0.4,0.8c-0.3,0.3-0.5,0.5-0.8,0.5h-11.6v-3.1h9.7V155c0-0.4,0.4-0.9,1.2-1.3l1.8-1
		L383,168.9L383,168.9z"/>
	<path class="st2" d="M388.3,170.2h-3.1v-14.4c0-0.7,0.4-1.3,1-1.9c0.2-0.1,0.9-0.5,2.1-1.2V170.2z"/>
	<path class="st2" d="M428.6,170.2h-31.9v-3.1h8.8v-1.8c-0.4-0.5-0.8-0.8-1.2-0.8h-5.9v-4c1,0.9,1.7,1.3,2.2,1.3
		c-0.4,0-0.1,0,0.8-0.1c1-0.1,1.6-0.1,1.9-0.1c3.5,0,5.2,0.7,5.2,2.1v3.3h20L428.6,170.2L428.6,170.2z"/>
	<path class="st2" d="M452.2,170.2h-23.9v-3.1h3.5c0.9-1.8,1.5-2.9,1.7-3.2c0.6-0.8,1.7-1.6,3.2-2.3l0.3-0.2V161
		c0-0.9,0.3-1.6,0.9-2.2c0.1-0.1,0.8-0.6,2.1-1.6v4.1l0.3,0.1c3.4,0.6,5.1,2.5,4.8,5.7h7.1L452.2,170.2L452.2,170.2z M436.8,167
		v-2.5c-0.6,0.3-1,0.5-1.2,0.8c-0.5,0.5-0.7,1.1-0.7,1.7L436.8,167L436.8,167z M441.8,166.7c0-1.5-0.6-2.2-1.7-2.2h-0.2v2.5h1.8
		c0,0,0-0.1,0.1-0.1C441.8,166.8,441.8,166.7,441.8,166.7"/>
	<path class="st2" d="M477.2,170.2h-26.1v-3.1H467c-0.7-1.3-1-2.1-1-2.7c0-1.1,0.4-1.8,1.1-2.2c0.6-0.3,1.5-0.5,2.8-0.5h1.1h1
		c1.1,0,1.7-0.1,2-0.2c0.1-0.1,0.5-0.5,1.2-1.3v4.6h-5.4l-0.3,0.4c0,0.3,0.2,0.7,0.6,1.2c0.5,0.5,0.8,0.7,1.1,0.7h6.1L477.2,170.2
		L477.2,170.2z"/>
	<path class="st2" d="M509,170.6c0,0.9-0.5,1.8-1.4,2.4c-0.9,0.7-1.9,1-3,1c-1.3,0-2.4-0.4-3.1-1.1c-0.6-0.6-1-1.5-1.3-2.8h-23.8
		V167h17.5c0.1-0.4,0.1-0.6,0.1-0.9c0-1.4,0.6-2.4,1.7-3.1c0.6-0.3,1.8-0.7,3.7-1.1c1.8-0.4,3-0.8,3.6-1.3v9.4
		c0,0.4,0.1,0.7,0.4,0.9c0.3,0.2,0.6,0.4,1,0.4c0.3,0,0.6-0.1,0.9-0.3c0.3-0.2,0.5-0.4,0.5-0.7v-14.9c0-0.7,0.4-1.2,1.1-1.7l2-1.2
		L509,170.6L509,170.6z M500.1,167v-2.3c-0.3-0.1-0.6-0.1-0.8-0.1c-0.5,0-1,0.2-1.6,0.6c-0.6,0.4-0.9,0.8-0.9,1.2v0.7H500.1z"/>
	<path class="st2" d="M514.2,170.2h-3.1v-14.4c0-0.7,0.3-1.3,1-1.9c0.2-0.1,0.9-0.5,2.1-1.2L514.2,170.2L514.2,170.2z"/>
	<path class="st2" d="M281.3,177.6c0,0.9-0.5,1.3-1.5,1.3c-1,0-1.5-0.4-1.5-1.3c0-0.4,0.2-0.7,0.4-1c0.3-0.3,0.7-0.4,1.1-0.4
		C280.8,176.2,281.3,176.7,281.3,177.6"/>
	<path class="st2" d="M286.3,177.6c0,0.9-0.5,1.3-1.5,1.3c-1,0-1.5-0.4-1.5-1.3c0-0.4,0.1-0.7,0.4-1c0.3-0.3,0.7-0.4,1.1-0.4
		C285.8,176.2,286.3,176.7,286.3,177.6"/>
</g>
<g>
	<g>
		<rect x="6.1" y="7.2" class="st3" width="4.3" height="24.5"/>
		<polygon class="st3" points="12.3,31.7 12.3,7.2 16.5,7.2 25.3,23.7 25.3,7.2 29.3,7.2 29.3,31.7 25,31.7 16.3,15.5 16.3,31.7 		
			"/>
		<path class="st3" d="M31.6,31.7V7.2h6.9c2.6,0,4.3,0.1,5.1,0.4c1.2,0.4,2.2,1.2,3.1,2.4c0.8,1.2,1.2,2.8,1.2,4.8
			c0,1.5-0.2,2.8-0.7,3.8c-0.5,1-1.1,1.8-1.8,2.4c-0.7,0.6-1.5,1-2.2,1.2c-1,0.2-2.5,0.4-4.5,0.4h-2.8v9.2L31.6,31.7L31.6,31.7z
			 M35.9,11.3v7h2.4c1.7,0,2.8-0.1,3.4-0.4c0.6-0.3,1-0.7,1.4-1.2c0.3-0.6,0.5-1.2,0.5-1.9c0-0.9-0.2-1.6-0.7-2.2
			c-0.5-0.6-1-0.9-1.7-1.1c-0.5-0.1-1.6-0.2-3.1-0.2L35.9,11.3L35.9,11.3z"/>
		<path class="st3" d="M54,31.7V11.3h-5.9c0,0-0.8-3.3-3.5-4.1H65l4.7,4.1H58.3v20.4H54z"/>
	</g>
	<g>
		<path class="st3" d="M68.9,23.9h-5.6v4.7H70v3H59.7V13.8h10.2v3h-6.6V21h5.6V23.9z"/>
		<path class="st3" d="M75,18.4l0.1,1.3c0.8-1,1.8-1.6,3.1-1.6c2.3,0,3.4,1.6,3.5,4.8v8.7h-3.5v-8.4c0-0.8-0.1-1.3-0.3-1.6
			c-0.2-0.3-0.6-0.5-1.2-0.5c-0.6,0-1.1,0.3-1.5,1v9.6h-3.5V18.4H75z"/>
		<path class="st3" d="M88.2,15.1v3.3H90V21h-1.8v6.6c0,0.5,0.1,0.9,0.2,1.1c0.1,0.2,0.4,0.3,0.8,0.3c0.3,0,0.6,0,0.8-0.1l0,2.7
			c-0.6,0.2-1.2,0.3-1.9,0.3c-2.2,0-3.4-1.3-3.4-3.8v-7h-1.5v-2.6h1.5v-3.3H88.2z"/>
		<path class="st3" d="M98.4,21.7l-1.1-0.1c-0.9,0-1.6,0.4-1.9,1.2v8.7h-3.5V18.4h3.3l0.1,1.4c0.5-1.1,1.3-1.7,2.3-1.7
			c0.4,0,0.7,0.1,1,0.2L98.4,21.7z"/>
		<path class="st3" d="M105.5,31.8c-1.8,0-3.2-0.5-4.2-1.6s-1.5-2.6-1.5-4.5v-1.1c0-2.1,0.5-3.7,1.4-4.8c0.9-1.1,2.2-1.7,3.9-1.7
			c1.7,0,2.9,0.5,3.8,1.6c0.8,1.1,1.3,2.6,1.3,4.7v1.7h-6.9c0,1,0.3,1.7,0.6,2.2c0.4,0.5,1,0.7,1.8,0.7c1.2,0,2.1-0.4,2.9-1.2
			l1.4,2.1c-0.4,0.6-1,1.1-1.8,1.4C107.3,31.7,106.5,31.8,105.5,31.8z M103.3,23.7h3.5v-0.3c0-0.8-0.1-1.4-0.4-1.8
			c-0.2-0.4-0.7-0.6-1.3-0.6c-0.6,0-1,0.2-1.3,0.6C103.5,22.1,103.4,22.8,103.3,23.7z"/>
		<path class="st3" d="M122.5,25.4c0,2.1-0.4,3.7-1.1,4.8c-0.7,1.1-1.8,1.7-3.2,1.7c-1.1,0-1.9-0.4-2.6-1.3v6.2h-3.5V18.4h3.2
			l0.1,1.2c0.7-1,1.6-1.5,2.7-1.5c1.4,0,2.5,0.5,3.2,1.5c0.7,1,1.1,2.6,1.1,4.7V25.4z M119,24.5c0-1.3-0.1-2.2-0.4-2.7
			c-0.3-0.5-0.8-0.8-1.4-0.8c-0.7,0-1.2,0.3-1.6,0.9v6.2c0.3,0.6,0.8,0.9,1.6,0.9c0.7,0,1.2-0.3,1.4-0.9c0.3-0.6,0.4-1.5,0.4-2.7
			V24.5z"/>
		<path class="st3" d="M131.1,21.7l-1.1-0.1c-0.9,0-1.6,0.4-1.9,1.2v8.7h-3.5V18.4h3.3l0.1,1.4c0.5-1.1,1.3-1.7,2.3-1.7
			c0.4,0,0.7,0.1,1,0.2L131.1,21.7z"/>
		<path class="st3" d="M132.9,15c0-0.5,0.2-1,0.5-1.3c0.3-0.3,0.8-0.5,1.4-0.5c0.6,0,1,0.2,1.4,0.5c0.3,0.3,0.5,0.8,0.5,1.3
			c0,0.5-0.2,1-0.5,1.3c-0.3,0.4-0.8,0.5-1.4,0.5c-0.6,0-1-0.2-1.4-0.5C133,15.9,132.9,15.5,132.9,15z M136.5,31.6H133V18.4h3.5
			V31.6z"/>
		<path class="st3" d="M145,28.1c0-0.3-0.1-0.6-0.4-0.8c-0.3-0.2-0.9-0.6-1.9-1c-1.4-0.6-2.4-1.2-2.9-1.8c-0.5-0.6-0.8-1.4-0.8-2.3
			c0-1.2,0.4-2.1,1.3-2.9s1.9-1.1,3.3-1.1c1.5,0,2.6,0.4,3.5,1.1c0.9,0.8,1.3,1.8,1.3,3h-3.5c0-1.1-0.4-1.6-1.3-1.6
			c-0.4,0-0.7,0.1-0.9,0.3c-0.2,0.2-0.4,0.5-0.4,1c0,0.3,0.1,0.6,0.4,0.8c0.3,0.2,0.9,0.5,1.8,1c1.4,0.5,2.4,1.1,3,1.7
			c0.6,0.6,0.9,1.5,0.9,2.5c0,1.2-0.4,2.1-1.3,2.8c-0.9,0.7-2.1,1.1-3.5,1.1c-1,0-1.8-0.2-2.6-0.6s-1.3-0.9-1.7-1.6
			s-0.6-1.4-0.6-2.2h3.3c0,0.6,0.2,1.1,0.4,1.4c0.3,0.3,0.7,0.5,1.3,0.5C144.6,29.3,145,28.9,145,28.1z"/>
		<path class="st3" d="M155.9,31.8c-1.8,0-3.2-0.5-4.2-1.6s-1.5-2.6-1.5-4.5v-1.1c0-2.1,0.5-3.7,1.4-4.8c0.9-1.1,2.2-1.7,3.9-1.7
			c1.7,0,2.9,0.5,3.8,1.6c0.8,1.1,1.3,2.6,1.3,4.7v1.7h-6.9c0,1,0.3,1.7,0.6,2.2c0.4,0.5,1,0.7,1.8,0.7c1.2,0,2.1-0.4,2.9-1.2
			l1.4,2.1c-0.4,0.6-1,1.1-1.8,1.4C157.7,31.7,156.8,31.8,155.9,31.8z M153.7,23.7h3.5v-0.3c0-0.8-0.1-1.4-0.4-1.8
			c-0.2-0.4-0.7-0.6-1.3-0.6c-0.6,0-1,0.2-1.3,0.6C153.9,22.1,153.8,22.8,153.7,23.7z"/>
		<path class="st3" d="M168.4,28.1c0-0.3-0.1-0.6-0.4-0.8c-0.3-0.2-0.9-0.6-1.9-1c-1.4-0.6-2.4-1.2-2.9-1.8
			c-0.5-0.6-0.8-1.4-0.8-2.3c0-1.2,0.4-2.1,1.3-2.9s1.9-1.1,3.3-1.1c1.5,0,2.6,0.4,3.5,1.1c0.9,0.8,1.3,1.8,1.3,3h-3.5
			c0-1.1-0.4-1.6-1.3-1.6c-0.4,0-0.7,0.1-0.9,0.3c-0.2,0.2-0.4,0.5-0.4,1c0,0.3,0.1,0.6,0.4,0.8c0.3,0.2,0.9,0.5,1.8,1
			c1.4,0.5,2.4,1.1,3,1.7c0.6,0.6,0.9,1.5,0.9,2.5c0,1.2-0.4,2.1-1.3,2.8c-0.9,0.7-2.1,1.1-3.5,1.1c-1,0-1.8-0.2-2.6-0.6
			s-1.3-0.9-1.7-1.6s-0.6-1.4-0.6-2.2h3.3c0,0.6,0.2,1.1,0.4,1.4c0.3,0.3,0.7,0.5,1.3,0.5C167.9,29.3,168.4,28.9,168.4,28.1z"/>
	</g>
	<g>
		<path class="st3" d="M5.5,45.6c0-0.7,0.1-1.4,0.4-2c0.2-0.6,0.6-1.2,1-1.6c0.4-0.5,1-0.8,1.6-1.1s1.3-0.4,2-0.4
			c0.9,0,1.7,0.2,2.4,0.6c0.7,0.4,1.2,1,1.6,1.7l-0.9,0.3c-0.3-0.5-0.7-1-1.3-1.3c-0.5-0.3-1.1-0.5-1.8-0.5c-0.5,0-1.1,0.1-1.5,0.3
			c-0.5,0.2-0.9,0.5-1.2,0.9c-0.4,0.4-0.6,0.8-0.8,1.3c-0.2,0.5-0.3,1.1-0.3,1.7c0,0.6,0.1,1.2,0.3,1.7c0.2,0.5,0.5,1,0.8,1.4
			C8,49,8.4,49.3,8.9,49.6c0.5,0.2,1,0.3,1.5,0.3c0.3,0,0.7-0.1,1-0.2c0.3-0.1,0.6-0.2,0.9-0.4c0.3-0.2,0.5-0.4,0.7-0.6
			s0.4-0.5,0.4-0.7l0.9,0.3c-0.1,0.3-0.3,0.7-0.6,1s-0.6,0.6-0.9,0.8c-0.4,0.2-0.7,0.4-1.2,0.5c-0.4,0.1-0.9,0.2-1.3,0.2
			c-0.7,0-1.3-0.1-1.9-0.4s-1.1-0.6-1.6-1.1s-0.8-1-1-1.7C5.7,47,5.5,46.3,5.5,45.6z"/>
		<path class="st3" d="M19.1,50.8c-0.5,0-0.9-0.1-1.3-0.2s-0.8-0.4-1-0.6c-0.3-0.3-0.5-0.6-0.7-1c-0.2-0.4-0.2-0.8-0.2-1.2
			s0.1-0.8,0.3-1.2s0.5-0.7,0.9-0.9s0.8-0.5,1.3-0.6c0.5-0.1,1.1-0.2,1.7-0.2c0.5,0,1.1,0,1.6,0.1c0.5,0.1,1,0.2,1.5,0.4v-1
			c0-0.9-0.3-1.7-0.8-2.2c-0.5-0.6-1.3-0.8-2.2-0.8c-0.5,0-1,0.1-1.6,0.3c-0.5,0.2-1.1,0.5-1.6,0.9l-0.4-0.6
			c1.3-0.9,2.5-1.3,3.6-1.3c1.2,0,2.1,0.3,2.8,1c0.7,0.7,1,1.7,1,2.9v4.8c0,0.3,0.1,0.5,0.4,0.5v0.9c-0.1,0-0.1,0-0.2,0
			s-0.1,0-0.2,0c-0.2,0-0.4-0.1-0.6-0.2s-0.3-0.4-0.3-0.6v-0.8c-0.5,0.6-1,1.1-1.7,1.4C20.7,50.6,19.9,50.8,19.1,50.8z M19.3,50
			c0.7,0,1.4-0.1,2-0.4c0.6-0.3,1.1-0.6,1.4-1.1c0.2-0.3,0.3-0.5,0.3-0.8V46c-1-0.4-2-0.5-3-0.5c-1,0-1.8,0.2-2.4,0.6
			c-0.6,0.4-0.9,0.9-0.9,1.6c0,0.3,0.1,0.6,0.2,0.9c0.1,0.3,0.3,0.5,0.5,0.8s0.5,0.4,0.8,0.5S18.9,50,19.3,50z"/>
		<path class="st3" d="M31.6,41.5c-0.9,0-1.7,0.3-2.3,0.8c-0.7,0.5-1.1,1.2-1.4,2.1v6.2h-1v-9.9h0.9v2.4c0.3-0.7,0.8-1.3,1.4-1.7
			c0.6-0.4,1.2-0.7,1.8-0.8c0.1,0,0.2,0,0.3,0c0.1,0,0.2,0,0.3,0V41.5z"/>
		<path class="st3" d="M38.1,41.5c-0.9,0-1.7,0.3-2.3,0.8c-0.7,0.5-1.1,1.2-1.4,2.1v6.2h-1v-9.9h0.9v2.4c0.3-0.7,0.8-1.3,1.4-1.7
			c0.6-0.4,1.2-0.7,1.8-0.8c0.1,0,0.2,0,0.3,0c0.1,0,0.2,0,0.3,0V41.5z"/>
		<path class="st3" d="M39.9,38.4v-1.8h1v1.8H39.9z M39.9,50.6v-9.9h1v9.9H39.9z"/>
		<path class="st3" d="M48.1,50.8c-0.7,0-1.3-0.1-1.9-0.4s-1.1-0.6-1.6-1.1s-0.8-1-1-1.7c-0.2-0.6-0.4-1.3-0.4-2
			c0-0.7,0.1-1.4,0.4-2c0.2-0.6,0.6-1.2,1-1.6c0.4-0.5,0.9-0.8,1.5-1.1s1.2-0.4,1.9-0.4c0.7,0,1.3,0.1,1.9,0.4s1.1,0.6,1.5,1.1
			c0.4,0.5,0.8,1,1,1.6c0.2,0.6,0.4,1.3,0.4,2c0,0.1,0,0.1,0,0.2c0,0.1,0,0.2,0,0.2h-8.7c0,0.6,0.2,1.1,0.4,1.6
			c0.2,0.5,0.5,0.9,0.9,1.3s0.8,0.6,1.2,0.8c0.5,0.2,0.9,0.3,1.5,0.3c0.3,0,0.7,0,1-0.1c0.3-0.1,0.6-0.2,0.9-0.4
			c0.3-0.2,0.5-0.4,0.8-0.6c0.2-0.2,0.4-0.5,0.5-0.8l0.8,0.2c-0.2,0.4-0.4,0.7-0.6,1c-0.3,0.3-0.6,0.6-1,0.8
			c-0.4,0.2-0.8,0.4-1.2,0.5C49,50.7,48.5,50.8,48.1,50.8z M52,45.2c0-0.6-0.2-1.1-0.4-1.6c-0.2-0.5-0.5-0.9-0.9-1.3
			c-0.4-0.4-0.8-0.6-1.2-0.8c-0.5-0.2-0.9-0.3-1.5-0.3c-0.5,0-1,0.1-1.5,0.3c-0.5,0.2-0.9,0.5-1.2,0.8c-0.4,0.3-0.6,0.8-0.8,1.3
			c-0.2,0.5-0.3,1-0.4,1.6H52z M46.4,36.6h1.1l1.2,1.6L48,38.6L46.4,36.6z"/>
		<path class="st3" d="M59.7,41.5c-0.9,0-1.7,0.3-2.3,0.8c-0.7,0.5-1.1,1.2-1.4,2.1v6.2h-1v-9.9h0.9v2.4c0.3-0.7,0.8-1.3,1.4-1.7
			c0.6-0.4,1.2-0.7,1.8-0.8c0.1,0,0.2,0,0.3,0c0.1,0,0.2,0,0.3,0V41.5z"/>
		<path class="st3" d="M65.7,50.8c-0.7,0-1.3-0.1-1.9-0.4s-1.1-0.6-1.6-1.1s-0.8-1-1-1.7c-0.2-0.6-0.4-1.3-0.4-2
			c0-0.7,0.1-1.4,0.4-2c0.2-0.6,0.6-1.2,1-1.6c0.4-0.5,0.9-0.8,1.5-1.1s1.2-0.4,1.9-0.4c0.7,0,1.3,0.1,1.9,0.4s1.1,0.6,1.5,1.1
			c0.4,0.5,0.8,1,1,1.6c0.2,0.6,0.4,1.3,0.4,2c0,0.1,0,0.1,0,0.2c0,0.1,0,0.2,0,0.2h-8.7c0,0.6,0.2,1.1,0.4,1.6
			c0.2,0.5,0.5,0.9,0.9,1.3s0.8,0.6,1.2,0.8c0.5,0.2,0.9,0.3,1.5,0.3c0.3,0,0.7,0,1-0.1c0.3-0.1,0.6-0.2,0.9-0.4
			c0.3-0.2,0.5-0.4,0.8-0.6c0.2-0.2,0.4-0.5,0.5-0.8l0.8,0.2c-0.2,0.4-0.4,0.7-0.6,1c-0.3,0.3-0.6,0.6-1,0.8
			c-0.4,0.2-0.8,0.4-1.2,0.5C66.6,50.7,66.2,50.8,65.7,50.8z M69.6,45.2c0-0.6-0.2-1.1-0.4-1.6c-0.2-0.5-0.5-0.9-0.9-1.3
			c-0.4-0.4-0.8-0.6-1.2-0.8c-0.5-0.2-0.9-0.3-1.5-0.3c-0.5,0-1,0.1-1.5,0.3c-0.5,0.2-0.9,0.5-1.2,0.8c-0.4,0.3-0.6,0.8-0.8,1.3
			c-0.2,0.5-0.3,1-0.4,1.6H69.6z"/>
		<path class="st3" d="M75.8,50.8c-0.8,0-1.5-0.1-2.2-0.4c-0.7-0.3-1.3-0.6-1.8-1.1l0.5-0.6c0.5,0.5,1.1,0.8,1.7,1.1
			c0.6,0.2,1.2,0.3,1.9,0.3c0.9,0,1.6-0.2,2.1-0.5c0.5-0.4,0.8-0.9,0.8-1.5c0-0.3-0.1-0.6-0.2-0.8c-0.1-0.2-0.3-0.4-0.6-0.5
			c-0.3-0.1-0.6-0.3-1-0.4c-0.4-0.1-0.9-0.2-1.4-0.4c-0.6-0.1-1-0.3-1.5-0.4s-0.8-0.3-1-0.5c-0.3-0.2-0.5-0.4-0.6-0.6
			c-0.1-0.3-0.2-0.6-0.2-1c0-0.5,0.1-0.9,0.3-1.3s0.5-0.7,0.8-0.9c0.3-0.2,0.7-0.4,1.2-0.5c0.4-0.1,0.9-0.2,1.4-0.2
			c0.8,0,1.5,0.1,2.1,0.4c0.6,0.3,1.1,0.6,1.4,1l-0.5,0.5c-0.3-0.4-0.8-0.7-1.3-0.9c-0.5-0.2-1.1-0.3-1.7-0.3c-0.4,0-0.7,0-1,0.1
			s-0.6,0.2-0.8,0.4c-0.2,0.2-0.4,0.4-0.6,0.6s-0.2,0.6-0.2,0.9c0,0.3,0,0.5,0.1,0.7c0.1,0.2,0.2,0.3,0.5,0.5s0.5,0.2,0.8,0.3
			s0.7,0.2,1.2,0.3c0.6,0.2,1.2,0.3,1.7,0.4c0.5,0.1,0.9,0.3,1.2,0.5c0.3,0.2,0.6,0.4,0.7,0.7c0.2,0.3,0.3,0.6,0.3,1.1
			c0,0.9-0.3,1.6-1,2.1C77.9,50.5,77,50.8,75.8,50.8z"/>
		<path class="st3" d="M81.6,50.6V49h0.8v1.6H81.6z"/>
		<path class="st3" d="M85.2,38.4v-1.8h1v1.8H85.2z M85.2,50.6v-9.9h1v9.9H85.2z"/>
		<path class="st3" d="M97.3,50.6h-1V45c0-1.3-0.2-2.2-0.5-2.8c-0.4-0.6-0.9-0.9-1.7-0.9c-0.4,0-0.8,0.1-1.3,0.2
			c-0.4,0.2-0.8,0.4-1.1,0.6c-0.4,0.3-0.7,0.6-0.9,1c-0.3,0.4-0.5,0.8-0.6,1.2v6.1h-1v-9.9H90V43c0.2-0.4,0.5-0.7,0.8-1
			c0.3-0.3,0.6-0.6,1-0.8s0.8-0.4,1.2-0.5c0.4-0.1,0.9-0.2,1.3-0.2c1.1,0,1.8,0.4,2.3,1.1c0.4,0.8,0.7,1.8,0.7,3.3V50.6z"/>
		<path class="st3" d="M104.9,50.8c-0.9,0-1.6-0.2-2.3-0.7c-0.7-0.5-1.2-1-1.6-1.7v6.2h-1v-14h0.9v2c0.4-0.6,0.9-1.2,1.6-1.6
			c0.7-0.4,1.4-0.6,2.2-0.6c0.7,0,1.3,0.1,1.9,0.4c0.6,0.3,1.1,0.7,1.5,1.2s0.7,1,1,1.7c0.2,0.6,0.4,1.3,0.4,1.9
			c0,0.7-0.1,1.3-0.3,2c-0.2,0.6-0.5,1.2-0.9,1.6s-0.9,0.8-1.4,1.1C106.2,50.6,105.6,50.8,104.9,50.8z M104.7,49.9
			c0.6,0,1.1-0.1,1.6-0.4c0.5-0.2,0.9-0.6,1.2-1c0.3-0.4,0.6-0.9,0.8-1.4c0.2-0.5,0.3-1,0.3-1.6c0-0.6-0.1-1.1-0.3-1.6
			c-0.2-0.5-0.5-1-0.8-1.4c-0.4-0.4-0.8-0.7-1.3-0.9c-0.5-0.2-1-0.4-1.5-0.4c-0.3,0-0.7,0.1-1.1,0.2c-0.4,0.1-0.8,0.3-1.1,0.6
			s-0.6,0.5-0.9,0.8c-0.2,0.3-0.4,0.7-0.4,1v3.3c0.2,0.4,0.4,0.7,0.6,1c0.3,0.3,0.5,0.6,0.9,0.8c0.3,0.2,0.7,0.4,1,0.6
			C103.9,49.9,104.3,49.9,104.7,49.9z"/>
		<path class="st3" d="M116.2,50.1c-0.1,0-0.1,0.1-0.3,0.1c-0.1,0.1-0.3,0.1-0.5,0.2c-0.2,0.1-0.4,0.1-0.6,0.2
			c-0.2,0.1-0.5,0.1-0.7,0.1c-0.3,0-0.5,0-0.8-0.1s-0.4-0.2-0.6-0.3c-0.2-0.2-0.3-0.3-0.4-0.6c-0.1-0.2-0.2-0.5-0.2-0.8v-7.5h-1.4
			v-0.8h1.4v-3.4h1v3.4h2.3v0.8h-2.3v7.3c0,0.4,0.1,0.6,0.4,0.8c0.3,0.2,0.5,0.3,0.9,0.3c0.4,0,0.7-0.1,1-0.2
			c0.3-0.1,0.5-0.2,0.5-0.3L116.2,50.1z"/>
		<path class="st3" d="M117.6,50.6V49h0.8v1.6H117.6z"/>
		<path class="st3" d="M123.7,50.8c-0.5,0-0.9-0.1-1.3-0.2s-0.8-0.4-1-0.6c-0.3-0.3-0.5-0.6-0.7-1c-0.2-0.4-0.2-0.8-0.2-1.2
			s0.1-0.8,0.3-1.2s0.5-0.7,0.9-0.9s0.8-0.5,1.3-0.6c0.5-0.1,1.1-0.2,1.7-0.2c0.5,0,1.1,0,1.6,0.1c0.5,0.1,1,0.2,1.5,0.4v-1
			c0-0.9-0.3-1.7-0.8-2.2c-0.5-0.6-1.3-0.8-2.2-0.8c-0.5,0-1,0.1-1.6,0.3c-0.5,0.2-1.1,0.5-1.6,0.9l-0.4-0.6
			c1.3-0.9,2.5-1.3,3.6-1.3c1.2,0,2.1,0.3,2.8,1c0.7,0.7,1,1.7,1,2.9v4.8c0,0.3,0.1,0.5,0.4,0.5v0.9c-0.1,0-0.1,0-0.2,0
			s-0.1,0-0.2,0c-0.2,0-0.4-0.1-0.6-0.2s-0.3-0.4-0.3-0.6v-0.8c-0.5,0.6-1,1.1-1.7,1.4C125.3,50.6,124.5,50.8,123.7,50.8z M123.9,50
			c0.7,0,1.4-0.1,2-0.4c0.6-0.3,1.1-0.6,1.4-1.1c0.2-0.3,0.3-0.5,0.3-0.8V46c-1-0.4-2-0.5-3-0.5c-1,0-1.8,0.2-2.4,0.6
			c-0.6,0.4-0.9,0.9-0.9,1.6c0,0.3,0.1,0.6,0.2,0.9c0.1,0.3,0.3,0.5,0.5,0.8s0.5,0.4,0.8,0.5S123.5,50,123.9,50z"/>
		<path class="st3" d="M130.9,45.6c0-0.7,0.1-1.4,0.4-2c0.2-0.6,0.6-1.2,1-1.6c0.4-0.5,1-0.8,1.6-1.1s1.3-0.4,2-0.4
			c0.9,0,1.7,0.2,2.4,0.6c0.7,0.4,1.2,1,1.6,1.7l-0.9,0.3c-0.3-0.5-0.7-1-1.3-1.3c-0.5-0.3-1.1-0.5-1.8-0.5c-0.5,0-1.1,0.1-1.5,0.3
			c-0.5,0.2-0.9,0.5-1.2,0.9c-0.4,0.4-0.6,0.8-0.8,1.3c-0.2,0.5-0.3,1.1-0.3,1.7c0,0.6,0.1,1.2,0.3,1.7c0.2,0.5,0.5,1,0.8,1.4
			c0.4,0.4,0.8,0.7,1.2,0.9c0.5,0.2,1,0.3,1.5,0.3c0.3,0,0.7-0.1,1-0.2c0.3-0.1,0.6-0.2,0.9-0.4c0.3-0.2,0.5-0.4,0.7-0.6
			s0.4-0.5,0.4-0.7l0.9,0.3c-0.1,0.3-0.3,0.7-0.6,1s-0.6,0.6-0.9,0.8c-0.4,0.2-0.7,0.4-1.2,0.5c-0.4,0.1-0.9,0.2-1.3,0.2
			c-0.7,0-1.3-0.1-1.9-0.4s-1.1-0.6-1.6-1.1s-0.8-1-1-1.7C131,47,130.9,46.3,130.9,45.6z"/>
		<path class="st3" d="M141.8,50.6V49h0.8v1.6H141.8z"/>
		<path class="st3" d="M160,50.6h-1V45c0-1.3-0.2-2.2-0.6-2.8c-0.4-0.6-1-0.9-1.8-0.9c-0.4,0-0.8,0.1-1.2,0.2
			c-0.4,0.2-0.7,0.4-1,0.6c-0.3,0.3-0.6,0.6-0.8,1c-0.2,0.4-0.4,0.8-0.5,1.3v6.1h-1V45c0-1.3-0.2-2.2-0.6-2.8
			c-0.4-0.6-1-0.9-1.8-0.9c-0.4,0-0.8,0.1-1.2,0.2s-0.7,0.4-1,0.6c-0.3,0.3-0.6,0.6-0.8,1s-0.4,0.8-0.5,1.3v6.1h-1v-9.9h0.9V43
			c0.4-0.8,1-1.4,1.6-1.9s1.4-0.7,2.2-0.7c0.8,0,1.5,0.2,2,0.7c0.5,0.5,0.8,1.1,0.9,1.9c1-1.8,2.3-2.7,3.9-2.7
			c1.1,0,1.9,0.4,2.3,1.2c0.5,0.8,0.7,1.8,0.7,3.2V50.6z"/>
		<path class="st3" d="M165.3,50.8c-0.5,0-0.9-0.1-1.3-0.2s-0.8-0.4-1-0.6c-0.3-0.3-0.5-0.6-0.7-1c-0.2-0.4-0.2-0.8-0.2-1.2
			s0.1-0.8,0.3-1.2s0.5-0.7,0.9-0.9s0.8-0.5,1.3-0.6c0.5-0.1,1.1-0.2,1.7-0.2c0.5,0,1.1,0,1.6,0.1c0.5,0.1,1,0.2,1.5,0.4v-1
			c0-0.9-0.3-1.7-0.8-2.2c-0.5-0.6-1.3-0.8-2.2-0.8c-0.5,0-1,0.1-1.6,0.3c-0.5,0.2-1.1,0.5-1.6,0.9l-0.4-0.6
			c1.3-0.9,2.5-1.3,3.6-1.3c1.2,0,2.1,0.3,2.8,1c0.7,0.7,1,1.7,1,2.9v4.8c0,0.3,0.1,0.5,0.4,0.5v0.9c-0.1,0-0.1,0-0.2,0
			s-0.1,0-0.2,0c-0.2,0-0.4-0.1-0.6-0.2s-0.3-0.4-0.3-0.6v-0.8c-0.5,0.6-1,1.1-1.7,1.4C166.9,50.6,166.1,50.8,165.3,50.8z M165.5,50
			c0.7,0,1.4-0.1,2-0.4c0.6-0.3,1.1-0.6,1.4-1.1c0.2-0.3,0.3-0.5,0.3-0.8V46c-1-0.4-2-0.5-3-0.5c-1,0-1.8,0.2-2.4,0.6
			c-0.6,0.4-0.9,0.9-0.9,1.6c0,0.3,0.1,0.6,0.2,0.9c0.1,0.3,0.3,0.5,0.5,0.8s0.5,0.4,0.8,0.5S165.1,50,165.5,50z"/>
	</g>
</g>
<g>
	<g>
		<rect x="6.1" y="-77.8" class="st4" width="4.3" height="24.5"/>
		<polygon class="st4" points="12.3,-53.3 12.3,-77.8 16.5,-77.8 25.3,-61.3 25.3,-77.8 29.3,-77.8 29.3,-53.3 25,-53.3 16.3,-69.5 
			16.3,-53.3 		"/>
		<path class="st4" d="M31.6-53.3v-24.5h6.9c2.6,0,4.3,0.1,5.1,0.4c1.2,0.4,2.2,1.2,3.1,2.4c0.8,1.2,1.2,2.8,1.2,4.8
			c0,1.5-0.2,2.8-0.7,3.8c-0.5,1-1.1,1.8-1.8,2.4c-0.7,0.6-1.5,1-2.2,1.2c-1,0.2-2.5,0.4-4.5,0.4h-2.8v9.2L31.6-53.3L31.6-53.3z
			 M35.9-73.7v7h2.4c1.7,0,2.8-0.1,3.4-0.4c0.6-0.3,1-0.7,1.4-1.2c0.3-0.6,0.5-1.2,0.5-1.9c0-0.9-0.2-1.6-0.7-2.2
			c-0.5-0.6-1-0.9-1.7-1.1c-0.5-0.1-1.6-0.2-3.1-0.2L35.9-73.7L35.9-73.7z"/>
		<path class="st4" d="M54-53.3v-20.4h-5.9c0,0-0.8-3.3-3.5-4.1H65l4.7,4.1H58.3v20.4H54z"/>
	</g>
	<g>
		<path class="st0" d="M68.9-61.1h-5.6v4.7H70v3H59.7v-17.8h10.2v3h-6.6v4.2h5.6V-61.1z"/>
		<path class="st0" d="M75-66.6l0.1,1.3c0.8-1,1.8-1.6,3.1-1.6c2.3,0,3.4,1.6,3.5,4.8v8.7h-3.5v-8.4c0-0.8-0.1-1.3-0.3-1.6
			c-0.2-0.3-0.6-0.5-1.2-0.5c-0.6,0-1.1,0.3-1.5,1v9.6h-3.5v-13.2H75z"/>
		<path class="st0" d="M88.2-69.9v3.3H90v2.6h-1.8v6.6c0,0.5,0.1,0.9,0.2,1.1c0.1,0.2,0.4,0.3,0.8,0.3c0.3,0,0.6,0,0.8-0.1l0,2.7
			c-0.6,0.2-1.2,0.3-1.9,0.3c-2.2,0-3.4-1.3-3.4-3.8v-7h-1.5v-2.6h1.5v-3.3H88.2z"/>
		<path class="st0" d="M98.4-63.3l-1.1-0.1c-0.9,0-1.6,0.4-1.9,1.2v8.7h-3.5v-13.2h3.3l0.1,1.4c0.5-1.1,1.3-1.7,2.3-1.7
			c0.4,0,0.7,0.1,1,0.2L98.4-63.3z"/>
		<path class="st0" d="M105.5-53.2c-1.8,0-3.2-0.5-4.2-1.6s-1.5-2.6-1.5-4.5v-1.1c0-2.1,0.5-3.7,1.4-4.8c0.9-1.1,2.2-1.7,3.9-1.7
			c1.7,0,2.9,0.5,3.8,1.6c0.8,1.1,1.3,2.6,1.3,4.7v1.7h-6.9c0,1,0.3,1.7,0.6,2.2c0.4,0.5,1,0.7,1.8,0.7c1.2,0,2.1-0.4,2.9-1.2
			l1.4,2.1c-0.4,0.6-1,1.1-1.8,1.4C107.3-53.3,106.5-53.2,105.5-53.2z M103.3-61.3h3.5v-0.3c0-0.8-0.1-1.4-0.4-1.8
			c-0.2-0.4-0.7-0.6-1.3-0.6c-0.6,0-1,0.2-1.3,0.6C103.5-62.9,103.4-62.2,103.3-61.3z"/>
		<path class="st0" d="M122.5-59.6c0,2.1-0.4,3.7-1.1,4.8c-0.7,1.1-1.8,1.7-3.2,1.7c-1.1,0-1.9-0.4-2.6-1.3v6.2h-3.5v-18.3h3.2
			l0.1,1.2c0.7-1,1.6-1.5,2.7-1.5c1.4,0,2.5,0.5,3.2,1.5c0.7,1,1.1,2.6,1.1,4.7V-59.6z M119-60.5c0-1.3-0.1-2.2-0.4-2.7
			c-0.3-0.5-0.8-0.8-1.4-0.8c-0.7,0-1.2,0.3-1.6,0.9v6.2c0.3,0.6,0.8,0.9,1.6,0.9c0.7,0,1.2-0.3,1.4-0.9c0.3-0.6,0.4-1.5,0.4-2.7
			V-60.5z"/>
		<path class="st0" d="M131.1-63.3l-1.1-0.1c-0.9,0-1.6,0.4-1.9,1.2v8.7h-3.5v-13.2h3.3l0.1,1.4c0.5-1.1,1.3-1.7,2.3-1.7
			c0.4,0,0.7,0.1,1,0.2L131.1-63.3z"/>
		<path class="st0" d="M132.9-70c0-0.5,0.2-1,0.5-1.3c0.3-0.3,0.8-0.5,1.4-0.5c0.6,0,1,0.2,1.4,0.5c0.3,0.3,0.5,0.8,0.5,1.3
			c0,0.5-0.2,1-0.5,1.3c-0.3,0.4-0.8,0.5-1.4,0.5c-0.6,0-1-0.2-1.4-0.5C133-69.1,132.9-69.5,132.9-70z M136.5-53.4H133v-13.2h3.5
			V-53.4z"/>
		<path class="st0" d="M145-56.9c0-0.3-0.1-0.6-0.4-0.8c-0.3-0.2-0.9-0.6-1.9-1c-1.4-0.6-2.4-1.2-2.9-1.8c-0.5-0.6-0.8-1.4-0.8-2.3
			c0-1.2,0.4-2.1,1.3-2.9s1.9-1.1,3.3-1.1c1.5,0,2.6,0.4,3.5,1.1c0.9,0.8,1.3,1.8,1.3,3h-3.5c0-1.1-0.4-1.6-1.3-1.6
			c-0.4,0-0.7,0.1-0.9,0.3c-0.2,0.2-0.4,0.5-0.4,1c0,0.3,0.1,0.6,0.4,0.8c0.3,0.2,0.9,0.5,1.8,1c1.4,0.5,2.4,1.1,3,1.7
			c0.6,0.6,0.9,1.5,0.9,2.5c0,1.2-0.4,2.1-1.3,2.8c-0.9,0.7-2.1,1.1-3.5,1.1c-1,0-1.8-0.2-2.6-0.6s-1.3-0.9-1.7-1.6
			s-0.6-1.4-0.6-2.2h3.3c0,0.6,0.2,1.1,0.4,1.4c0.3,0.3,0.7,0.5,1.3,0.5C144.6-55.7,145-56.1,145-56.9z"/>
		<path class="st0" d="M155.9-53.2c-1.8,0-3.2-0.5-4.2-1.6s-1.5-2.6-1.5-4.5v-1.1c0-2.1,0.5-3.7,1.4-4.8c0.9-1.1,2.2-1.7,3.9-1.7
			c1.7,0,2.9,0.5,3.8,1.6c0.8,1.1,1.3,2.6,1.3,4.7v1.7h-6.9c0,1,0.3,1.7,0.6,2.2c0.4,0.5,1,0.7,1.8,0.7c1.2,0,2.1-0.4,2.9-1.2
			l1.4,2.1c-0.4,0.6-1,1.1-1.8,1.4C157.7-53.3,156.8-53.2,155.9-53.2z M153.7-61.3h3.5v-0.3c0-0.8-0.1-1.4-0.4-1.8
			c-0.2-0.4-0.7-0.6-1.3-0.6c-0.6,0-1,0.2-1.3,0.6C153.9-62.9,153.8-62.2,153.7-61.3z"/>
		<path class="st0" d="M168.4-56.9c0-0.3-0.1-0.6-0.4-0.8c-0.3-0.2-0.9-0.6-1.9-1c-1.4-0.6-2.4-1.2-2.9-1.8
			c-0.5-0.6-0.8-1.4-0.8-2.3c0-1.2,0.4-2.1,1.3-2.9s1.9-1.1,3.3-1.1c1.5,0,2.6,0.4,3.5,1.1c0.9,0.8,1.3,1.8,1.3,3h-3.5
			c0-1.1-0.4-1.6-1.3-1.6c-0.4,0-0.7,0.1-0.9,0.3c-0.2,0.2-0.4,0.5-0.4,1c0,0.3,0.1,0.6,0.4,0.8c0.3,0.2,0.9,0.5,1.8,1
			c1.4,0.5,2.4,1.1,3,1.7c0.6,0.6,0.9,1.5,0.9,2.5c0,1.2-0.4,2.1-1.3,2.8c-0.9,0.7-2.1,1.1-3.5,1.1c-1,0-1.8-0.2-2.6-0.6
			s-1.3-0.9-1.7-1.6s-0.6-1.4-0.6-2.2h3.3c0,0.6,0.2,1.1,0.4,1.4c0.3,0.3,0.7,0.5,1.3,0.5C167.9-55.7,168.4-56.1,168.4-56.9z"/>
	</g>
	<g>
		<path class="st4" d="M5.5-39.4c0-0.7,0.1-1.4,0.4-2c0.2-0.6,0.6-1.2,1-1.6c0.4-0.5,1-0.8,1.6-1.1s1.3-0.4,2-0.4
			c0.9,0,1.7,0.2,2.4,0.6c0.7,0.4,1.2,1,1.6,1.7l-0.9,0.3c-0.3-0.5-0.7-1-1.3-1.3c-0.5-0.3-1.1-0.5-1.8-0.5c-0.5,0-1.1,0.1-1.5,0.3
			c-0.5,0.2-0.9,0.5-1.2,0.9c-0.4,0.4-0.6,0.8-0.8,1.3c-0.2,0.5-0.3,1.1-0.3,1.7c0,0.6,0.1,1.2,0.3,1.7c0.2,0.5,0.5,1,0.8,1.4
			C8-36,8.4-35.7,8.9-35.4c0.5,0.2,1,0.3,1.5,0.3c0.3,0,0.7-0.1,1-0.2c0.3-0.1,0.6-0.2,0.9-0.4c0.3-0.2,0.5-0.4,0.7-0.6
			s0.4-0.5,0.4-0.7l0.9,0.3c-0.1,0.3-0.3,0.7-0.6,1s-0.6,0.6-0.9,0.8c-0.4,0.2-0.7,0.4-1.2,0.5c-0.4,0.1-0.9,0.2-1.3,0.2
			c-0.7,0-1.3-0.1-1.9-0.4s-1.1-0.6-1.6-1.1s-0.8-1-1-1.7C5.7-38,5.5-38.7,5.5-39.4z"/>
		<path class="st4" d="M19.1-34.2c-0.5,0-0.9-0.1-1.3-0.2s-0.8-0.4-1-0.6c-0.3-0.3-0.5-0.6-0.7-1c-0.2-0.4-0.2-0.8-0.2-1.2
			s0.1-0.8,0.3-1.2s0.5-0.7,0.9-0.9s0.8-0.5,1.3-0.6c0.5-0.1,1.1-0.2,1.7-0.2c0.5,0,1.1,0,1.6,0.1c0.5,0.1,1,0.2,1.5,0.4v-1
			c0-0.9-0.3-1.7-0.8-2.2c-0.5-0.6-1.3-0.8-2.2-0.8c-0.5,0-1,0.1-1.6,0.3c-0.5,0.2-1.1,0.5-1.6,0.9l-0.4-0.6
			c1.3-0.9,2.5-1.3,3.6-1.3c1.2,0,2.1,0.3,2.8,1c0.7,0.7,1,1.7,1,2.9v4.8c0,0.3,0.1,0.5,0.4,0.5v0.9c-0.1,0-0.1,0-0.2,0
			s-0.1,0-0.2,0c-0.2,0-0.4-0.1-0.6-0.2s-0.3-0.4-0.3-0.6v-0.8c-0.5,0.6-1,1.1-1.7,1.4C20.7-34.4,19.9-34.2,19.1-34.2z M19.3-35
			c0.7,0,1.4-0.1,2-0.4c0.6-0.3,1.1-0.6,1.4-1.1c0.2-0.3,0.3-0.5,0.3-0.8V-39c-1-0.4-2-0.5-3-0.5c-1,0-1.8,0.2-2.4,0.6
			c-0.6,0.4-0.9,0.9-0.9,1.6c0,0.3,0.1,0.6,0.2,0.9c0.1,0.3,0.3,0.5,0.5,0.8s0.5,0.4,0.8,0.5S18.9-35,19.3-35z"/>
		<path class="st4" d="M31.6-43.5c-0.9,0-1.7,0.3-2.3,0.8c-0.7,0.5-1.1,1.2-1.4,2.1v6.2h-1v-9.9h0.9v2.4c0.3-0.7,0.8-1.3,1.4-1.7
			c0.6-0.4,1.2-0.7,1.8-0.8c0.1,0,0.2,0,0.3,0c0.1,0,0.2,0,0.3,0V-43.5z"/>
		<path class="st4" d="M38.1-43.5c-0.9,0-1.7,0.3-2.3,0.8c-0.7,0.5-1.1,1.2-1.4,2.1v6.2h-1v-9.9h0.9v2.4c0.3-0.7,0.8-1.3,1.4-1.7
			c0.6-0.4,1.2-0.7,1.8-0.8c0.1,0,0.2,0,0.3,0c0.1,0,0.2,0,0.3,0V-43.5z"/>
		<path class="st4" d="M39.9-46.6v-1.8h1v1.8H39.9z M39.9-34.4v-9.9h1v9.9H39.9z"/>
		<path class="st4" d="M48.1-34.2c-0.7,0-1.3-0.1-1.9-0.4s-1.1-0.6-1.6-1.1s-0.8-1-1-1.7c-0.2-0.6-0.4-1.3-0.4-2
			c0-0.7,0.1-1.4,0.4-2c0.2-0.6,0.6-1.2,1-1.6c0.4-0.5,0.9-0.8,1.5-1.1s1.2-0.4,1.9-0.4c0.7,0,1.3,0.1,1.9,0.4s1.1,0.6,1.5,1.1
			c0.4,0.5,0.8,1,1,1.6c0.2,0.6,0.4,1.3,0.4,2c0,0.1,0,0.1,0,0.2c0,0.1,0,0.2,0,0.2h-8.7c0,0.6,0.2,1.1,0.4,1.6
			c0.2,0.5,0.5,0.9,0.9,1.3s0.8,0.6,1.2,0.8c0.5,0.2,0.9,0.3,1.5,0.3c0.3,0,0.7,0,1-0.1c0.3-0.1,0.6-0.2,0.9-0.4
			c0.3-0.2,0.5-0.4,0.8-0.6c0.2-0.2,0.4-0.5,0.5-0.8l0.8,0.2c-0.2,0.4-0.4,0.7-0.6,1c-0.3,0.3-0.6,0.6-1,0.8
			c-0.4,0.2-0.8,0.4-1.2,0.5C49-34.3,48.5-34.2,48.1-34.2z M52-39.8c0-0.6-0.2-1.1-0.4-1.6c-0.2-0.5-0.5-0.9-0.9-1.3
			c-0.4-0.4-0.8-0.6-1.2-0.8c-0.5-0.2-0.9-0.3-1.5-0.3c-0.5,0-1,0.1-1.5,0.3c-0.5,0.2-0.9,0.5-1.2,0.8c-0.4,0.3-0.6,0.8-0.8,1.3
			c-0.2,0.5-0.3,1-0.4,1.6H52z M46.4-48.4h1.1l1.2,1.6L48-46.4L46.4-48.4z"/>
		<path class="st4" d="M59.7-43.5c-0.9,0-1.7,0.3-2.3,0.8c-0.7,0.5-1.1,1.2-1.4,2.1v6.2h-1v-9.9h0.9v2.4c0.3-0.7,0.8-1.3,1.4-1.7
			c0.6-0.4,1.2-0.7,1.8-0.8c0.1,0,0.2,0,0.3,0c0.1,0,0.2,0,0.3,0V-43.5z"/>
		<path class="st4" d="M65.7-34.2c-0.7,0-1.3-0.1-1.9-0.4s-1.1-0.6-1.6-1.1s-0.8-1-1-1.7c-0.2-0.6-0.4-1.3-0.4-2
			c0-0.7,0.1-1.4,0.4-2c0.2-0.6,0.6-1.2,1-1.6c0.4-0.5,0.9-0.8,1.5-1.1s1.2-0.4,1.9-0.4c0.7,0,1.3,0.1,1.9,0.4s1.1,0.6,1.5,1.1
			c0.4,0.5,0.8,1,1,1.6c0.2,0.6,0.4,1.3,0.4,2c0,0.1,0,0.1,0,0.2c0,0.1,0,0.2,0,0.2h-8.7c0,0.6,0.2,1.1,0.4,1.6
			c0.2,0.5,0.5,0.9,0.9,1.3s0.8,0.6,1.2,0.8c0.5,0.2,0.9,0.3,1.5,0.3c0.3,0,0.7,0,1-0.1c0.3-0.1,0.6-0.2,0.9-0.4
			c0.3-0.2,0.5-0.4,0.8-0.6c0.2-0.2,0.4-0.5,0.5-0.8l0.8,0.2c-0.2,0.4-0.4,0.7-0.6,1c-0.3,0.3-0.6,0.6-1,0.8
			c-0.4,0.2-0.8,0.4-1.2,0.5C66.6-34.3,66.2-34.2,65.7-34.2z M69.6-39.8c0-0.6-0.2-1.1-0.4-1.6c-0.2-0.5-0.5-0.9-0.9-1.3
			c-0.4-0.4-0.8-0.6-1.2-0.8c-0.5-0.2-0.9-0.3-1.5-0.3c-0.5,0-1,0.1-1.5,0.3c-0.5,0.2-0.9,0.5-1.2,0.8c-0.4,0.3-0.6,0.8-0.8,1.3
			c-0.2,0.5-0.3,1-0.4,1.6H69.6z"/>
		<path class="st4" d="M75.8-34.2c-0.8,0-1.5-0.1-2.2-0.4c-0.7-0.3-1.3-0.6-1.8-1.1l0.5-0.6c0.5,0.5,1.1,0.8,1.7,1.1
			c0.6,0.2,1.2,0.3,1.9,0.3c0.9,0,1.6-0.2,2.1-0.5c0.5-0.4,0.8-0.9,0.8-1.5c0-0.3-0.1-0.6-0.2-0.8c-0.1-0.2-0.3-0.4-0.6-0.5
			c-0.3-0.1-0.6-0.3-1-0.4c-0.4-0.1-0.9-0.2-1.4-0.4c-0.6-0.1-1-0.3-1.5-0.4s-0.8-0.3-1-0.5c-0.3-0.2-0.5-0.4-0.6-0.6
			c-0.1-0.3-0.2-0.6-0.2-1c0-0.5,0.1-0.9,0.3-1.3s0.5-0.7,0.8-0.9c0.3-0.2,0.7-0.4,1.2-0.5c0.4-0.1,0.9-0.2,1.4-0.2
			c0.8,0,1.5,0.1,2.1,0.4c0.6,0.3,1.1,0.6,1.4,1l-0.5,0.5c-0.3-0.4-0.8-0.7-1.3-0.9c-0.5-0.2-1.1-0.3-1.7-0.3c-0.4,0-0.7,0-1,0.1
			s-0.6,0.2-0.8,0.4c-0.2,0.2-0.4,0.4-0.6,0.6s-0.2,0.6-0.2,0.9c0,0.3,0,0.5,0.1,0.7c0.1,0.2,0.2,0.3,0.5,0.5s0.5,0.2,0.8,0.3
			s0.7,0.2,1.2,0.3c0.6,0.2,1.2,0.3,1.7,0.4c0.5,0.1,0.9,0.3,1.2,0.5c0.3,0.2,0.6,0.4,0.7,0.7c0.2,0.3,0.3,0.6,0.3,1.1
			c0,0.9-0.3,1.6-1,2.1C77.9-34.5,77-34.2,75.8-34.2z"/>
		<path class="st4" d="M81.6-34.4V-36h0.8v1.6H81.6z"/>
		<path class="st4" d="M85.2-46.6v-1.8h1v1.8H85.2z M85.2-34.4v-9.9h1v9.9H85.2z"/>
		<path class="st4" d="M97.3-34.4h-1V-40c0-1.3-0.2-2.2-0.5-2.8c-0.4-0.6-0.9-0.9-1.7-0.9c-0.4,0-0.8,0.1-1.3,0.2
			c-0.4,0.2-0.8,0.4-1.1,0.6c-0.4,0.3-0.7,0.6-0.9,1c-0.3,0.4-0.5,0.8-0.6,1.2v6.1h-1v-9.9H90v2.4c0.2-0.4,0.5-0.7,0.8-1
			c0.3-0.3,0.6-0.6,1-0.8s0.8-0.4,1.2-0.5c0.4-0.1,0.9-0.2,1.3-0.2c1.1,0,1.8,0.4,2.3,1.1c0.4,0.8,0.7,1.8,0.7,3.3V-34.4z"/>
		<path class="st4" d="M104.9-34.2c-0.9,0-1.6-0.2-2.3-0.7c-0.7-0.5-1.2-1-1.6-1.7v6.2h-1v-14h0.9v2c0.4-0.6,0.9-1.2,1.6-1.6
			c0.7-0.4,1.4-0.6,2.2-0.6c0.7,0,1.3,0.1,1.9,0.4c0.6,0.3,1.1,0.7,1.5,1.2s0.7,1,1,1.7c0.2,0.6,0.4,1.3,0.4,1.9
			c0,0.7-0.1,1.3-0.3,2c-0.2,0.6-0.5,1.2-0.9,1.6s-0.9,0.8-1.4,1.1C106.2-34.4,105.6-34.2,104.9-34.2z M104.7-35.1
			c0.6,0,1.1-0.1,1.6-0.4c0.5-0.2,0.9-0.6,1.2-1c0.3-0.4,0.6-0.9,0.8-1.4c0.2-0.5,0.3-1,0.3-1.6c0-0.6-0.1-1.1-0.3-1.6
			c-0.2-0.5-0.5-1-0.8-1.4c-0.4-0.4-0.8-0.7-1.3-0.9c-0.5-0.2-1-0.4-1.5-0.4c-0.3,0-0.7,0.1-1.1,0.2c-0.4,0.1-0.8,0.3-1.1,0.6
			s-0.6,0.5-0.9,0.8c-0.2,0.3-0.4,0.7-0.4,1v3.3c0.2,0.4,0.4,0.7,0.6,1c0.3,0.3,0.5,0.6,0.9,0.8c0.3,0.2,0.7,0.4,1,0.6
			C103.9-35.1,104.3-35.1,104.7-35.1z"/>
		<path class="st4" d="M116.2-34.9c-0.1,0-0.1,0.1-0.3,0.1c-0.1,0.1-0.3,0.1-0.5,0.2c-0.2,0.1-0.4,0.1-0.6,0.2
			c-0.2,0.1-0.5,0.1-0.7,0.1c-0.3,0-0.5,0-0.8-0.1s-0.4-0.2-0.6-0.3c-0.2-0.2-0.3-0.3-0.4-0.6c-0.1-0.2-0.2-0.5-0.2-0.8v-7.5h-1.4
			v-0.8h1.4v-3.4h1v3.4h2.3v0.8h-2.3v7.3c0,0.4,0.1,0.6,0.4,0.8c0.3,0.2,0.5,0.3,0.9,0.3c0.4,0,0.7-0.1,1-0.2
			c0.3-0.1,0.5-0.2,0.5-0.3L116.2-34.9z"/>
		<path class="st4" d="M117.6-34.4V-36h0.8v1.6H117.6z"/>
		<path class="st4" d="M123.7-34.2c-0.5,0-0.9-0.1-1.3-0.2s-0.8-0.4-1-0.6c-0.3-0.3-0.5-0.6-0.7-1c-0.2-0.4-0.2-0.8-0.2-1.2
			s0.1-0.8,0.3-1.2s0.5-0.7,0.9-0.9s0.8-0.5,1.3-0.6c0.5-0.1,1.1-0.2,1.7-0.2c0.5,0,1.1,0,1.6,0.1c0.5,0.1,1,0.2,1.5,0.4v-1
			c0-0.9-0.3-1.7-0.8-2.2c-0.5-0.6-1.3-0.8-2.2-0.8c-0.5,0-1,0.1-1.6,0.3c-0.5,0.2-1.1,0.5-1.6,0.9l-0.4-0.6
			c1.3-0.9,2.5-1.3,3.6-1.3c1.2,0,2.1,0.3,2.8,1c0.7,0.7,1,1.7,1,2.9v4.8c0,0.3,0.1,0.5,0.4,0.5v0.9c-0.1,0-0.1,0-0.2,0
			s-0.1,0-0.2,0c-0.2,0-0.4-0.1-0.6-0.2s-0.3-0.4-0.3-0.6v-0.8c-0.5,0.6-1,1.1-1.7,1.4C125.3-34.4,124.5-34.2,123.7-34.2z M123.9-35
			c0.7,0,1.4-0.1,2-0.4c0.6-0.3,1.1-0.6,1.4-1.1c0.2-0.3,0.3-0.5,0.3-0.8V-39c-1-0.4-2-0.5-3-0.5c-1,0-1.8,0.2-2.4,0.6
			c-0.6,0.4-0.9,0.9-0.9,1.6c0,0.3,0.1,0.6,0.2,0.9c0.1,0.3,0.3,0.5,0.5,0.8s0.5,0.4,0.8,0.5S123.5-35,123.9-35z"/>
		<path class="st4" d="M130.9-39.4c0-0.7,0.1-1.4,0.4-2c0.2-0.6,0.6-1.2,1-1.6c0.4-0.5,1-0.8,1.6-1.1s1.3-0.4,2-0.4
			c0.9,0,1.7,0.2,2.4,0.6c0.7,0.4,1.2,1,1.6,1.7l-0.9,0.3c-0.3-0.5-0.7-1-1.3-1.3c-0.5-0.3-1.1-0.5-1.8-0.5c-0.5,0-1.1,0.1-1.5,0.3
			c-0.5,0.2-0.9,0.5-1.2,0.9c-0.4,0.4-0.6,0.8-0.8,1.3c-0.2,0.5-0.3,1.1-0.3,1.7c0,0.6,0.1,1.2,0.3,1.7c0.2,0.5,0.5,1,0.8,1.4
			c0.4,0.4,0.8,0.7,1.2,0.9c0.5,0.2,1,0.3,1.5,0.3c0.3,0,0.7-0.1,1-0.2c0.3-0.1,0.6-0.2,0.9-0.4c0.3-0.2,0.5-0.4,0.7-0.6
			s0.4-0.5,0.4-0.7l0.9,0.3c-0.1,0.3-0.3,0.7-0.6,1s-0.6,0.6-0.9,0.8c-0.4,0.2-0.7,0.4-1.2,0.5c-0.4,0.1-0.9,0.2-1.3,0.2
			c-0.7,0-1.3-0.1-1.9-0.4s-1.1-0.6-1.6-1.1s-0.8-1-1-1.7C131-38,130.9-38.7,130.9-39.4z"/>
		<path class="st4" d="M141.8-34.4V-36h0.8v1.6H141.8z"/>
		<path class="st4" d="M160-34.4h-1V-40c0-1.3-0.2-2.2-0.6-2.8c-0.4-0.6-1-0.9-1.8-0.9c-0.4,0-0.8,0.1-1.2,0.2
			c-0.4,0.2-0.7,0.4-1,0.6c-0.3,0.3-0.6,0.6-0.8,1c-0.2,0.4-0.4,0.8-0.5,1.3v6.1h-1V-40c0-1.3-0.2-2.2-0.6-2.8
			c-0.4-0.6-1-0.9-1.8-0.9c-0.4,0-0.8,0.1-1.2,0.2s-0.7,0.4-1,0.6c-0.3,0.3-0.6,0.6-0.8,1s-0.4,0.8-0.5,1.3v6.1h-1v-9.9h0.9v2.4
			c0.4-0.8,1-1.4,1.6-1.9s1.4-0.7,2.2-0.7c0.8,0,1.5,0.2,2,0.7c0.5,0.5,0.8,1.1,0.9,1.9c1-1.8,2.3-2.7,3.9-2.7
			c1.1,0,1.9,0.4,2.3,1.2c0.5,0.8,0.7,1.8,0.7,3.2V-34.4z"/>
		<path class="st4" d="M165.3-34.2c-0.5,0-0.9-0.1-1.3-0.2s-0.8-0.4-1-0.6c-0.3-0.3-0.5-0.6-0.7-1c-0.2-0.4-0.2-0.8-0.2-1.2
			s0.1-0.8,0.3-1.2s0.5-0.7,0.9-0.9s0.8-0.5,1.3-0.6c0.5-0.1,1.1-0.2,1.7-0.2c0.5,0,1.1,0,1.6,0.1c0.5,0.1,1,0.2,1.5,0.4v-1
			c0-0.9-0.3-1.7-0.8-2.2c-0.5-0.6-1.3-0.8-2.2-0.8c-0.5,0-1,0.1-1.6,0.3c-0.5,0.2-1.1,0.5-1.6,0.9l-0.4-0.6
			c1.3-0.9,2.5-1.3,3.6-1.3c1.2,0,2.1,0.3,2.8,1c0.7,0.7,1,1.7,1,2.9v4.8c0,0.3,0.1,0.5,0.4,0.5v0.9c-0.1,0-0.1,0-0.2,0
			s-0.1,0-0.2,0c-0.2,0-0.4-0.1-0.6-0.2s-0.3-0.4-0.3-0.6v-0.8c-0.5,0.6-1,1.1-1.7,1.4C166.9-34.4,166.1-34.2,165.3-34.2z M165.5-35
			c0.7,0,1.4-0.1,2-0.4c0.6-0.3,1.1-0.6,1.4-1.1c0.2-0.3,0.3-0.5,0.3-0.8V-39c-1-0.4-2-0.5-3-0.5c-1,0-1.8,0.2-2.4,0.6
			c-0.6,0.4-0.9,0.9-0.9,1.6c0,0.3,0.1,0.6,0.2,0.9c0.1,0.3,0.3,0.5,0.5,0.8s0.5,0.4,0.8,0.5S165.1-35,165.5-35z"/>
	</g>
</g>
<g>
	<g>
		<rect x="19.6" y="-208.5" class="st3" width="5.3" height="30.5"/>
		<polygon class="st3" points="27.3,-178 27.3,-208.5 32.5,-208.5 43.4,-188 43.4,-208.5 48.4,-208.5 48.4,-178 43,-178 
			32.2,-198.1 32.2,-178 		"/>
		<path class="st3" d="M51.2-178v-30.5h8.6c3.3,0,5.4,0.2,6.4,0.5c1.5,0.5,2.8,1.5,3.8,3c1,1.5,1.5,3.5,1.5,5.9
			c0,1.9-0.3,3.4-0.9,4.7c-0.6,1.3-1.3,2.3-2.3,3c-0.9,0.7-1.8,1.2-2.8,1.4c-1.3,0.3-3.1,0.4-5.6,0.4h-3.5v11.5L51.2-178L51.2-178z
			 M56.6-203.4v8.7h2.9c2.1,0,3.5-0.2,4.2-0.5c0.7-0.3,1.3-0.8,1.7-1.5c0.4-0.7,0.6-1.5,0.6-2.4c0-1.1-0.3-2-0.9-2.8
			c-0.6-0.7-1.3-1.2-2.2-1.4c-0.6-0.1-1.9-0.2-3.9-0.2L56.6-203.4L56.6-203.4z"/>
		<path class="st3" d="M79.1-178v-25.3h-7.4c0,0-0.9-4.1-4.4-5.1h25.4l5.8,5.1H84.4v25.3H79.1z"/>
	</g>
	<g>
		<path class="st3" d="M97.6-187.7h-6.9v5.9h8.2v3.7H86.1v-22.1h12.7v3.7h-8.2v5.2h6.9V-187.7z"/>
		<path class="st3" d="M105.1-194.6l0.1,1.6c1-1.3,2.2-1.9,3.8-1.9c2.8,0,4.3,2,4.4,5.9v10.8h-4.3v-10.5c0-0.9-0.1-1.6-0.4-2
			c-0.3-0.4-0.8-0.6-1.5-0.6c-0.8,0-1.4,0.4-1.8,1.2v11.9h-4.3v-16.4H105.1z"/>
		<path class="st3" d="M121.5-198.6v4h2.2v3.2h-2.2v8.2c0,0.6,0.1,1.1,0.3,1.3c0.2,0.2,0.5,0.4,1,0.4c0.4,0,0.8,0,1-0.1l0,3.3
			c-0.7,0.3-1.5,0.4-2.4,0.4c-2.8,0-4.2-1.6-4.2-4.8v-8.7h-1.9v-3.2h1.9v-4H121.5z"/>
		<path class="st3" d="M134.1-190.4l-1.4-0.1c-1.2,0-2,0.5-2.4,1.5v10.8H126v-16.4h4.1l0.1,1.8c0.7-1.4,1.6-2.1,2.8-2.1
			c0.5,0,0.9,0.1,1.2,0.2L134.1-190.4z"/>
		<path class="st3" d="M143-177.9c-2.2,0-3.9-0.7-5.2-2c-1.2-1.3-1.9-3.2-1.9-5.6v-1.3c0-2.6,0.6-4.6,1.7-6c1.1-1.4,2.8-2.1,4.9-2.1
			c2.1,0,3.6,0.7,4.7,2s1.6,3.3,1.6,5.9v2.1h-8.5c0.1,1.2,0.3,2.1,0.8,2.7c0.5,0.6,1.2,0.8,2.2,0.8c1.4,0,2.6-0.5,3.6-1.5l1.7,2.6
			c-0.5,0.7-1.3,1.3-2.3,1.8C145.2-178.1,144.1-177.9,143-177.9z M140.3-187.9h4.3v-0.4c0-1-0.2-1.7-0.5-2.2
			c-0.3-0.5-0.8-0.8-1.6-0.8s-1.3,0.3-1.6,0.8C140.5-190,140.3-189.1,140.3-187.9z"/>
		<path class="st3" d="M164-185.9c0,2.6-0.4,4.6-1.3,5.9c-0.9,1.4-2.2,2.1-4,2.1c-1.3,0-2.4-0.5-3.2-1.6v7.6h-4.3v-22.7h4l0.2,1.5
			c0.8-1.2,1.9-1.8,3.4-1.8c1.8,0,3.1,0.6,4,1.9c0.9,1.3,1.3,3.2,1.4,5.9V-185.9z M159.7-186.9c0-1.6-0.2-2.7-0.5-3.4
			c-0.3-0.7-0.9-1-1.8-1c-0.9,0-1.5,0.4-1.9,1.1v7.7c0.4,0.7,1,1.1,2,1.1c0.8,0,1.4-0.4,1.8-1.1s0.5-1.8,0.5-3.4V-186.9z"/>
		<path class="st3" d="M174.7-190.4l-1.4-0.1c-1.2,0-2,0.5-2.4,1.5v10.8h-4.3v-16.4h4.1l0.1,1.8c0.7-1.4,1.6-2.1,2.8-2.1
			c0.5,0,0.9,0.1,1.2,0.2L174.7-190.4z"/>
		<path class="st3" d="M176.9-198.8c0-0.7,0.2-1.2,0.6-1.6s1-0.6,1.7-0.6c0.7,0,1.3,0.2,1.7,0.6c0.4,0.4,0.6,1,0.6,1.6
			c0,0.7-0.2,1.2-0.6,1.6s-1,0.7-1.7,0.7s-1.3-0.2-1.7-0.7C177.1-197.6,176.9-198.2,176.9-198.8z M181.4-178.2h-4.3v-16.4h4.3
			V-178.2z"/>
		<path class="st3" d="M192-182.6c0-0.4-0.2-0.7-0.5-1s-1.1-0.7-2.3-1.3c-1.8-0.7-3-1.5-3.6-2.2c-0.7-0.8-1-1.7-1-2.9
			c0-1.4,0.5-2.6,1.6-3.6c1-0.9,2.4-1.4,4.1-1.4c1.8,0,3.2,0.5,4.3,1.4s1.6,2.2,1.6,3.7h-4.3c0-1.3-0.6-2-1.7-2
			c-0.5,0-0.8,0.1-1.1,0.4s-0.4,0.7-0.4,1.2c0,0.4,0.2,0.7,0.5,1c0.3,0.3,1.1,0.7,2.3,1.2c1.8,0.6,3,1.4,3.7,2.2
			c0.7,0.8,1.1,1.8,1.1,3.1c0,1.5-0.6,2.6-1.7,3.5s-2.5,1.3-4.3,1.3c-1.2,0-2.3-0.2-3.2-0.7c-0.9-0.5-1.6-1.1-2.2-2
			s-0.8-1.7-0.8-2.7h4.1c0,0.7,0.2,1.3,0.5,1.7c0.3,0.4,0.9,0.6,1.6,0.6C191.4-181,192-181.5,192-182.6z"/>
		<path class="st3" d="M205.5-177.9c-2.2,0-3.9-0.7-5.2-2c-1.2-1.3-1.9-3.2-1.9-5.6v-1.3c0-2.6,0.6-4.6,1.7-6
			c1.1-1.4,2.8-2.1,4.9-2.1c2.1,0,3.6,0.7,4.7,2s1.6,3.3,1.6,5.9v2.1h-8.5c0.1,1.2,0.3,2.1,0.8,2.7c0.5,0.6,1.2,0.8,2.2,0.8
			c1.4,0,2.6-0.5,3.6-1.5l1.7,2.6c-0.5,0.7-1.3,1.3-2.3,1.8C207.7-178.1,206.6-177.9,205.5-177.9z M202.8-187.9h4.3v-0.4
			c0-1-0.2-1.7-0.5-2.2c-0.3-0.5-0.8-0.8-1.6-0.8s-1.3,0.3-1.6,0.8C203-190,202.8-189.1,202.8-187.9z"/>
		<path class="st3" d="M221-182.6c0-0.4-0.2-0.7-0.5-1s-1.1-0.7-2.3-1.3c-1.8-0.7-3-1.5-3.6-2.2c-0.7-0.8-1-1.7-1-2.9
			c0-1.4,0.5-2.6,1.6-3.6c1-0.9,2.4-1.4,4.1-1.4c1.8,0,3.2,0.5,4.3,1.4s1.6,2.2,1.6,3.7h-4.3c0-1.3-0.6-2-1.7-2
			c-0.5,0-0.8,0.1-1.1,0.4s-0.4,0.7-0.4,1.2c0,0.4,0.2,0.7,0.5,1c0.3,0.3,1.1,0.7,2.3,1.2c1.8,0.6,3,1.4,3.7,2.2
			c0.7,0.8,1.1,1.8,1.1,3.1c0,1.5-0.6,2.6-1.7,3.5s-2.5,1.3-4.3,1.3c-1.2,0-2.3-0.2-3.2-0.7c-0.9-0.5-1.6-1.1-2.2-2
			s-0.8-1.7-0.8-2.7h4.1c0,0.7,0.2,1.3,0.5,1.7c0.3,0.4,0.9,0.6,1.6,0.6C220.4-181,221-181.5,221-182.6z"/>
	</g>
	<g>
		<path class="st3" d="M18.9-160.8c0-0.9,0.1-1.7,0.5-2.5c0.3-0.8,0.7-1.4,1.3-2s1.2-1,1.9-1.4c0.7-0.3,1.6-0.5,2.4-0.5
			c1.1,0,2.1,0.3,2.9,0.8c0.8,0.5,1.5,1.2,1.9,2.1l-1.2,0.4c-0.4-0.7-0.9-1.2-1.6-1.6c-0.7-0.4-1.4-0.6-2.2-0.6
			c-0.7,0-1.3,0.1-1.9,0.4c-0.6,0.3-1.1,0.6-1.5,1.1s-0.8,1-1,1.7c-0.2,0.6-0.4,1.3-0.4,2.1c0,0.7,0.1,1.4,0.4,2.1s0.6,1.2,1,1.7
			c0.4,0.5,0.9,0.9,1.5,1.1c0.6,0.3,1.2,0.4,1.9,0.4c0.4,0,0.8-0.1,1.3-0.2c0.4-0.1,0.8-0.3,1.2-0.5c0.4-0.2,0.7-0.4,0.9-0.7
			c0.3-0.3,0.4-0.6,0.5-0.9l1.2,0.3c-0.2,0.4-0.4,0.8-0.7,1.2c-0.3,0.4-0.7,0.7-1.1,1s-0.9,0.5-1.5,0.6c-0.5,0.2-1.1,0.2-1.6,0.2
			c-0.9,0-1.7-0.2-2.4-0.5c-0.7-0.3-1.4-0.8-1.9-1.4c-0.5-0.6-1-1.3-1.3-2C19-159.1,18.9-159.9,18.9-160.8z"/>
		<path class="st3" d="M35.7-154.4c-0.6,0-1.1-0.1-1.6-0.3s-0.9-0.5-1.3-0.8c-0.4-0.3-0.7-0.7-0.9-1.2c-0.2-0.5-0.3-1-0.3-1.5
			s0.1-1,0.4-1.5c0.3-0.4,0.6-0.8,1.1-1.1c0.5-0.3,1-0.6,1.6-0.8c0.6-0.2,1.3-0.3,2.1-0.3c0.7,0,1.3,0.1,2,0.2
			c0.7,0.1,1.3,0.3,1.8,0.5v-1.2c0-1.2-0.3-2.1-1-2.8c-0.7-0.7-1.6-1-2.7-1c-0.6,0-1.3,0.1-1.9,0.4c-0.7,0.3-1.3,0.6-2,1.1l-0.5-0.8
			c1.6-1.1,3.1-1.6,4.5-1.6c1.5,0,2.7,0.4,3.5,1.3c0.9,0.9,1.3,2,1.3,3.6v6c0,0.4,0.2,0.6,0.5,0.6v1.1c-0.1,0-0.2,0-0.2,0
			s-0.1,0-0.2,0c-0.3,0-0.5-0.1-0.8-0.3c-0.2-0.2-0.4-0.5-0.4-0.8v-1c-0.6,0.7-1.3,1.3-2.2,1.7C37.7-154.6,36.7-154.4,35.7-154.4z
			 M35.9-155.3c0.9,0,1.8-0.2,2.5-0.5c0.8-0.3,1.4-0.8,1.7-1.4c0.3-0.3,0.4-0.6,0.4-0.9v-2.2c-1.2-0.4-2.4-0.7-3.7-0.7
			c-1.2,0-2.2,0.3-3,0.8c-0.8,0.5-1.1,1.2-1.1,2c0,0.4,0.1,0.8,0.2,1.2c0.2,0.4,0.4,0.7,0.7,0.9c0.3,0.3,0.6,0.5,1,0.6
			S35.5-155.3,35.9-155.3z"/>
		<path class="st3" d="M51.2-165.9c-1.1,0-2.1,0.4-2.9,1c-0.8,0.6-1.4,1.5-1.7,2.6v7.7h-1.2v-12.3h1.1v3c0.4-0.9,1-1.6,1.7-2.1
			c0.7-0.5,1.5-0.9,2.3-0.9c0.2,0,0.3,0,0.4,0c0.1,0,0.2,0,0.3,0V-165.9z"/>
		<path class="st3" d="M59.3-165.9c-1.1,0-2.1,0.4-2.9,1c-0.8,0.6-1.4,1.5-1.7,2.6v7.7h-1.2v-12.3h1.1v3c0.4-0.9,1-1.6,1.7-2.1
			c0.7-0.5,1.5-0.9,2.3-0.9c0.2,0,0.3,0,0.4,0c0.1,0,0.2,0,0.3,0V-165.9z"/>
		<path class="st3" d="M61.6-169.7v-2.2h1.2v2.2H61.6z M61.6-154.6v-12.3h1.2v12.3H61.6z"/>
		<path class="st3" d="M71.7-154.4c-0.9,0-1.7-0.2-2.4-0.5c-0.7-0.3-1.4-0.8-1.9-1.4c-0.5-0.6-1-1.3-1.3-2c-0.3-0.8-0.5-1.6-0.5-2.5
			c0-0.9,0.2-1.7,0.5-2.5c0.3-0.8,0.7-1.4,1.3-2c0.5-0.6,1.2-1,1.9-1.4c0.7-0.3,1.5-0.5,2.4-0.5c0.9,0,1.7,0.2,2.4,0.5
			c0.7,0.3,1.4,0.8,1.9,1.4c0.5,0.6,1,1.2,1.3,2c0.3,0.8,0.5,1.6,0.5,2.4c0,0.1,0,0.2,0,0.3c0,0.1,0,0.2,0,0.2H66.8
			c0,0.7,0.2,1.4,0.5,2c0.3,0.6,0.6,1.1,1.1,1.6c0.4,0.4,0.9,0.8,1.5,1c0.6,0.3,1.2,0.4,1.8,0.4c0.4,0,0.8-0.1,1.3-0.2
			c0.4-0.1,0.8-0.3,1.2-0.5s0.7-0.5,0.9-0.7c0.3-0.3,0.5-0.6,0.7-1l1,0.3c-0.2,0.4-0.5,0.8-0.8,1.2c-0.3,0.4-0.7,0.7-1.2,1
			c-0.5,0.3-0.9,0.5-1.5,0.6C72.8-154.4,72.2-154.4,71.7-154.4z M76.5-161.2c0-0.7-0.2-1.4-0.5-2s-0.6-1.1-1.1-1.6
			c-0.4-0.4-0.9-0.8-1.5-1c-0.6-0.2-1.2-0.4-1.8-0.4c-0.6,0-1.3,0.1-1.8,0.4c-0.6,0.2-1.1,0.6-1.5,1c-0.4,0.4-0.8,1-1,1.6
			c-0.3,0.6-0.4,1.3-0.5,2H76.5z M69.6-171.9h1.4l1.5,2l-0.8,0.4L69.6-171.9z"/>
		<path class="st3" d="M86.1-165.9c-1.1,0-2.1,0.4-2.9,1c-0.8,0.6-1.4,1.5-1.7,2.6v7.7h-1.2v-12.3h1.1v3c0.4-0.9,1-1.6,1.7-2.1
			c0.7-0.5,1.5-0.9,2.3-0.9c0.2,0,0.3,0,0.4,0c0.1,0,0.2,0,0.3,0V-165.9z"/>
		<path class="st3" d="M93.6-154.4c-0.9,0-1.7-0.2-2.4-0.5c-0.7-0.3-1.4-0.8-1.9-1.4c-0.5-0.6-1-1.3-1.3-2c-0.3-0.8-0.5-1.6-0.5-2.5
			c0-0.9,0.2-1.7,0.5-2.5c0.3-0.8,0.7-1.4,1.3-2c0.5-0.6,1.2-1,1.9-1.4c0.7-0.3,1.5-0.5,2.4-0.5c0.9,0,1.7,0.2,2.4,0.5
			c0.7,0.3,1.4,0.8,1.9,1.4c0.5,0.6,1,1.2,1.3,2c0.3,0.8,0.5,1.6,0.5,2.4c0,0.1,0,0.2,0,0.3c0,0.1,0,0.2,0,0.2H88.7
			c0,0.7,0.2,1.4,0.5,2c0.3,0.6,0.6,1.1,1.1,1.6c0.4,0.4,0.9,0.8,1.5,1c0.6,0.3,1.2,0.4,1.8,0.4c0.4,0,0.8-0.1,1.3-0.2
			c0.4-0.1,0.8-0.3,1.2-0.5s0.7-0.5,0.9-0.7c0.3-0.3,0.5-0.6,0.7-1l1,0.3c-0.2,0.4-0.5,0.8-0.8,1.2c-0.3,0.4-0.7,0.7-1.2,1
			c-0.5,0.3-0.9,0.5-1.5,0.6C94.7-154.4,94.1-154.4,93.6-154.4z M98.4-161.2c0-0.7-0.2-1.4-0.5-2s-0.6-1.1-1.1-1.6
			c-0.4-0.4-0.9-0.8-1.5-1c-0.6-0.2-1.2-0.4-1.8-0.4c-0.6,0-1.3,0.1-1.8,0.4c-0.6,0.2-1.1,0.6-1.5,1c-0.4,0.4-0.8,1-1,1.6
			c-0.3,0.6-0.4,1.3-0.5,2H98.4z"/>
		<path class="st3" d="M106.1-154.4c-0.9,0-1.9-0.2-2.7-0.5c-0.9-0.3-1.6-0.8-2.3-1.4l0.6-0.8c0.7,0.6,1.4,1,2.1,1.3
			c0.7,0.3,1.5,0.4,2.3,0.4c1.1,0,1.9-0.2,2.6-0.7s1-1.1,1-1.9c0-0.4-0.1-0.7-0.2-1c-0.2-0.3-0.4-0.5-0.7-0.7s-0.7-0.3-1.2-0.5
			c-0.5-0.1-1.1-0.3-1.7-0.5c-0.7-0.2-1.3-0.3-1.8-0.5c-0.5-0.2-0.9-0.3-1.3-0.6c-0.3-0.2-0.6-0.5-0.7-0.8c-0.2-0.3-0.2-0.7-0.2-1.2
			c0-0.6,0.1-1.2,0.4-1.6c0.2-0.5,0.6-0.8,1-1.1c0.4-0.3,0.9-0.5,1.4-0.7c0.5-0.1,1.1-0.2,1.7-0.2c1,0,1.8,0.2,2.6,0.5
			c0.7,0.3,1.3,0.7,1.7,1.2l-0.7,0.6c-0.4-0.5-0.9-0.8-1.6-1.1c-0.7-0.2-1.4-0.4-2.1-0.4c-0.5,0-0.9,0-1.3,0.1s-0.8,0.2-1.1,0.5
			c-0.3,0.2-0.5,0.5-0.7,0.8c-0.2,0.3-0.3,0.7-0.3,1.1c0,0.4,0.1,0.7,0.2,0.9c0.1,0.2,0.3,0.4,0.6,0.6c0.3,0.2,0.6,0.3,1,0.4
			c0.4,0.1,0.9,0.2,1.5,0.4c0.8,0.2,1.5,0.4,2.1,0.5c0.6,0.2,1.1,0.4,1.5,0.6c0.4,0.3,0.7,0.6,0.9,0.9c0.2,0.3,0.3,0.8,0.3,1.3
			c0,1.1-0.4,2-1.3,2.6S107.5-154.4,106.1-154.4z"/>
		<path class="st3" d="M113.3-154.6v-2h1v2H113.3z"/>
		<path class="st3" d="M117.8-169.7v-2.2h1.2v2.2H117.8z M117.8-154.6v-12.3h1.2v12.3H117.8z"/>
		<path class="st3" d="M132.7-154.6h-1.2v-6.9c0-1.6-0.2-2.8-0.7-3.5s-1.2-1.1-2.2-1.1c-0.5,0-1,0.1-1.6,0.3s-1,0.5-1.4,0.8
			c-0.4,0.3-0.8,0.8-1.1,1.2c-0.3,0.5-0.6,1-0.7,1.5v7.6h-1.2v-12.3h1.1v2.9c0.3-0.5,0.6-0.9,0.9-1.3c0.4-0.4,0.8-0.7,1.3-1
			c0.5-0.3,1-0.5,1.5-0.6c0.5-0.1,1.1-0.2,1.6-0.2c1.3,0,2.3,0.5,2.8,1.4c0.6,0.9,0.8,2.3,0.8,4V-154.6z"/>
		<path class="st3" d="M142.2-154.4c-1.1,0-2-0.3-2.8-0.8c-0.8-0.6-1.5-1.2-2-2v7.7h-1.2v-17.4h1.1v2.5c0.5-0.8,1.2-1.4,2-1.9
			c0.8-0.5,1.7-0.7,2.7-0.7c0.9,0,1.6,0.2,2.4,0.5s1.3,0.8,1.9,1.4c0.5,0.6,0.9,1.3,1.2,2c0.3,0.8,0.4,1.6,0.4,2.4
			c0,0.9-0.1,1.7-0.4,2.4c-0.3,0.8-0.7,1.5-1.1,2s-1.1,1-1.8,1.4C143.8-154.5,143-154.4,142.2-154.4z M141.9-155.4
			c0.7,0,1.4-0.2,1.9-0.5s1.1-0.7,1.5-1.2c0.4-0.5,0.7-1.1,0.9-1.7s0.3-1.3,0.3-2c0-0.7-0.1-1.4-0.4-2c-0.3-0.6-0.6-1.2-1-1.7
			c-0.4-0.5-1-0.9-1.6-1.2c-0.6-0.3-1.2-0.4-1.9-0.4c-0.4,0-0.9,0.1-1.4,0.3c-0.5,0.2-0.9,0.4-1.4,0.7c-0.4,0.3-0.8,0.7-1.1,1.1
			c-0.3,0.4-0.5,0.8-0.5,1.3v4.1c0.2,0.5,0.4,0.9,0.8,1.3s0.7,0.7,1.1,1c0.4,0.3,0.8,0.5,1.3,0.7S141.5-155.4,141.9-155.4z"/>
		<path class="st3" d="M156.2-155.2c-0.1,0-0.2,0.1-0.3,0.2c-0.2,0.1-0.3,0.2-0.6,0.2s-0.5,0.2-0.8,0.2c-0.3,0.1-0.6,0.1-0.9,0.1
			c-0.3,0-0.6,0-0.9-0.1c-0.3-0.1-0.5-0.2-0.8-0.4s-0.4-0.4-0.5-0.7s-0.2-0.6-0.2-0.9v-9.3h-1.7v-1h1.7v-4.2h1.2v4.2h2.9v1h-2.9v9
			c0,0.5,0.2,0.8,0.5,1c0.3,0.2,0.7,0.3,1.1,0.3c0.5,0,0.9-0.1,1.3-0.2c0.4-0.2,0.6-0.3,0.7-0.3L156.2-155.2z"/>
		<path class="st3" d="M158-154.6v-2h1v2H158z"/>
		<path class="st3" d="M165.5-154.4c-0.6,0-1.1-0.1-1.6-0.3s-0.9-0.5-1.3-0.8c-0.4-0.3-0.7-0.7-0.9-1.2c-0.2-0.5-0.3-1-0.3-1.5
			s0.1-1,0.4-1.5c0.3-0.4,0.6-0.8,1.1-1.1c0.5-0.3,1-0.6,1.6-0.8c0.6-0.2,1.3-0.3,2.1-0.3c0.7,0,1.3,0.1,2,0.2
			c0.7,0.1,1.3,0.3,1.8,0.5v-1.2c0-1.2-0.3-2.1-1-2.8c-0.7-0.7-1.6-1-2.7-1c-0.6,0-1.3,0.1-1.9,0.4c-0.7,0.3-1.3,0.6-2,1.1l-0.5-0.8
			c1.6-1.1,3.1-1.6,4.5-1.6c1.5,0,2.7,0.4,3.5,1.3c0.9,0.9,1.3,2,1.3,3.6v6c0,0.4,0.2,0.6,0.5,0.6v1.1c-0.1,0-0.2,0-0.2,0
			s-0.1,0-0.2,0c-0.3,0-0.5-0.1-0.8-0.3c-0.2-0.2-0.4-0.5-0.4-0.8v-1c-0.6,0.7-1.3,1.3-2.2,1.7C167.5-154.6,166.6-154.4,165.5-154.4
			z M165.8-155.3c0.9,0,1.8-0.2,2.5-0.5c0.8-0.3,1.4-0.8,1.7-1.4c0.3-0.3,0.4-0.6,0.4-0.9v-2.2c-1.2-0.4-2.4-0.7-3.7-0.7
			c-1.2,0-2.2,0.3-3,0.8c-0.8,0.5-1.1,1.2-1.1,2c0,0.4,0.1,0.8,0.2,1.2c0.2,0.4,0.4,0.7,0.7,0.9c0.3,0.3,0.6,0.5,1,0.6
			S165.3-155.3,165.8-155.3z"/>
		<path class="st3" d="M174.4-160.8c0-0.9,0.1-1.7,0.5-2.5c0.3-0.8,0.7-1.4,1.3-2s1.2-1,1.9-1.4c0.7-0.3,1.6-0.5,2.4-0.5
			c1.1,0,2.1,0.3,2.9,0.8c0.8,0.5,1.5,1.2,1.9,2.1l-1.2,0.4c-0.4-0.7-0.9-1.2-1.6-1.6c-0.7-0.4-1.4-0.6-2.2-0.6
			c-0.7,0-1.3,0.1-1.9,0.4c-0.6,0.3-1.1,0.6-1.5,1.1s-0.8,1-1,1.7c-0.2,0.6-0.4,1.3-0.4,2.1c0,0.7,0.1,1.4,0.4,2.1s0.6,1.2,1,1.7
			c0.4,0.5,0.9,0.9,1.5,1.1c0.6,0.3,1.2,0.4,1.9,0.4c0.4,0,0.8-0.1,1.3-0.2c0.4-0.1,0.8-0.3,1.2-0.5c0.4-0.2,0.7-0.4,0.9-0.7
			c0.3-0.3,0.4-0.6,0.5-0.9l1.2,0.3c-0.2,0.4-0.4,0.8-0.7,1.2c-0.3,0.4-0.7,0.7-1.1,1s-0.9,0.5-1.5,0.6c-0.5,0.2-1.1,0.2-1.6,0.2
			c-0.9,0-1.7-0.2-2.4-0.5c-0.7-0.3-1.4-0.8-1.9-1.4c-0.5-0.6-1-1.3-1.3-2C174.6-159.1,174.4-159.9,174.4-160.8z"/>
		<path class="st3" d="M188-154.6v-2h1v2H188z"/>
		<path class="st3" d="M210.6-154.6h-1.2v-6.9c0-1.6-0.2-2.7-0.7-3.5c-0.5-0.7-1.2-1.1-2.2-1.1c-0.5,0-1,0.1-1.5,0.3
			s-0.9,0.5-1.2,0.8c-0.4,0.3-0.7,0.7-1,1.2s-0.5,1-0.7,1.6v7.6h-1.2v-6.9c0-1.6-0.2-2.7-0.7-3.5c-0.5-0.7-1.2-1.1-2.2-1.1
			c-0.5,0-1,0.1-1.4,0.3c-0.5,0.2-0.9,0.4-1.3,0.8c-0.4,0.3-0.7,0.7-1,1.2s-0.5,1-0.7,1.6v7.6h-1.2v-12.3h1.1v2.9
			c0.5-1,1.2-1.8,2-2.3c0.8-0.6,1.7-0.8,2.7-0.8c1,0,1.9,0.3,2.5,0.9c0.6,0.6,1,1.4,1.1,2.4c1.2-2.2,2.8-3.3,4.8-3.3
			c1.4,0,2.3,0.5,2.9,1.4c0.6,1,0.9,2.3,0.9,4V-154.6z"/>
		<path class="st3" d="M217.1-154.4c-0.6,0-1.1-0.1-1.6-0.3s-0.9-0.5-1.3-0.8c-0.4-0.3-0.7-0.7-0.9-1.2c-0.2-0.5-0.3-1-0.3-1.5
			s0.1-1,0.4-1.5c0.3-0.4,0.6-0.8,1.1-1.1c0.5-0.3,1-0.6,1.6-0.8c0.6-0.2,1.3-0.3,2.1-0.3c0.7,0,1.3,0.1,2,0.2
			c0.7,0.1,1.3,0.3,1.8,0.5v-1.2c0-1.2-0.3-2.1-1-2.8c-0.7-0.7-1.6-1-2.7-1c-0.6,0-1.3,0.1-1.9,0.4c-0.7,0.3-1.3,0.6-2,1.1l-0.5-0.8
			c1.6-1.1,3.1-1.6,4.5-1.6c1.5,0,2.7,0.4,3.5,1.3c0.9,0.9,1.3,2,1.3,3.6v6c0,0.4,0.2,0.6,0.5,0.6v1.1c-0.1,0-0.2,0-0.2,0
			s-0.1,0-0.2,0c-0.3,0-0.5-0.1-0.8-0.3c-0.2-0.2-0.4-0.5-0.4-0.8v-1c-0.6,0.7-1.3,1.3-2.2,1.7C219.1-154.6,218.1-154.4,217.1-154.4
			z M217.4-155.3c0.9,0,1.8-0.2,2.5-0.5c0.8-0.3,1.4-0.8,1.7-1.4c0.3-0.3,0.4-0.6,0.4-0.9v-2.2c-1.2-0.4-2.4-0.7-3.7-0.7
			c-1.2,0-2.2,0.3-3,0.8c-0.8,0.5-1.1,1.2-1.1,2c0,0.4,0.1,0.8,0.2,1.2c0.2,0.4,0.4,0.7,0.7,0.9c0.3,0.3,0.6,0.5,1,0.6
			S216.9-155.3,217.4-155.3z"/>
	</g>
</g>
<g>
	<polyline class="st5" points="1393.4,-273.1 1547.9,-273.1 1547.9,-135.5 	"/>
	<polyline class="st5" points="1393.2,-238.8 1509.4,-238.8 1509.4,-135.2 	"/>
	<polyline class="st5" points="1393.2,-204.4 1470.6,-204.4 1470.6,-135.3 	"/>
</g>
</svg>
